{"glyphs":{"0":{"ha":1350,"x_min":-49,"x_max":1286,"o":"m 483 -21 q 92 69 233 -21 q -49 331 -49 158 q -22 507 -49 418 q 68 684 6 596 q 222 840 131 772 q 451 951 313 908 q 756 993 589 993 q 1146 903 1006 993 q 1286 640 1286 814 q 1258 465 1286 554 q 1168 288 1231 376 q 1015 132 1106 200 q 786 22 924 64 q 483 -21 649 -21 m 592 382 q 756 421 703 382 q 808 514 808 460 q 647 592 808 592 q 481 553 533 592 q 428 460 428 514 q 592 382 428 382 z "},"1":{"ha":878,"x_min":-6,"x_max":876,"o":"m 615 0 l 167 0 l 314 547 l -6 547 l 108 972 l 876 972 l 615 0 z "},"2":{"ha":1253,"x_min":-161,"x_max":1174,"o":"m 1038 0 l -161 0 l -69 344 l 382 461 q 632 574 617 524 q 600 606 639 594 q 463 619 557 619 q 22 585 256 619 l 118 946 q 667 993 335 993 q 1035 936 896 993 q 1174 776 1174 879 q 1084 593 1174 685 q 813 444 994 501 l 575 371 l 571 358 l 1133 358 l 1038 0 z "},"3":{"ha":1221,"x_min":-162,"x_max":1200,"o":"m 350 -21 q -162 19 43 -21 l -68 375 q 349 339 117 339 q 515 351 446 339 q 615 379 585 363 q 644 415 644 396 q 588 456 644 442 q 433 466 532 469 q 222 442 335 463 l 208 533 l 572 610 l 578 631 l 53 619 l 147 972 l 1200 972 l 1107 629 l 778 550 l 774 536 q 1017 483 940 535 q 1094 349 1094 431 q 1069 251 1094 300 q 987 152 1044 201 q 846 65 929 103 q 634 3 763 26 q 350 -21 506 -21 z "},"4":{"ha":1475,"x_min":-118,"x_max":1399,"o":"m 1029 0 l 578 0 l 625 174 l -118 174 l -75 338 l 936 972 l 1290 972 l 1157 476 l 1399 476 l 1318 175 l 1076 175 l 1029 0 m 756 664 l 468 475 l 706 475 l 756 664 z "},"5":{"ha":1199,"x_min":-131,"x_max":1176,"o":"m 303 -21 q -131 26 78 -21 l -47 376 q 399 339 115 339 q 579 360 514 339 q 644 410 644 382 q 595 449 644 433 q 454 465 546 465 q 293 451 393 465 q 150 422 193 438 l -4 482 l 132 972 l 1176 972 l 1079 610 l 413 610 l 392 533 q 624 544 499 544 q 944 490 811 544 q 1076 340 1076 436 q 1057 253 1076 297 q 983 158 1038 208 q 847 69 929 107 q 623 5 764 31 q 303 -21 482 -21 z "},"6":{"ha":1286,"x_min":-54,"x_max":1189,"o":"m 489 -21 q -54 308 -54 -21 q -28 487 -54 397 q 63 669 -3 576 q 225 833 128 763 q 479 948 322 903 q 831 993 636 993 q 1189 963 1039 993 l 1093 608 q 807 639 967 639 q 563 599 669 639 q 433 500 456 560 l 443 500 q 761 567 522 567 q 1169 371 1169 567 q 1148 269 1169 321 q 1075 164 1126 217 q 948 71 1024 111 q 753 5 872 31 q 489 -21 635 -21 m 558 339 q 694 360 646 339 q 743 414 743 382 q 702 452 743 436 q 588 468 661 468 q 407 394 407 468 q 558 339 407 339 z "},"7":{"ha":1164,"x_min":-83,"x_max":1213,"o":"m 406 0 l -83 0 l 624 603 l 8 603 l 108 972 l 1213 972 l 1124 640 l 406 0 z "},"8":{"ha":1300,"x_min":-93,"x_max":1246,"o":"m 460 -18 q 58 48 208 -18 q -93 225 -93 114 q 10 404 -93 313 q 275 514 114 496 l 278 525 q 136 585 194 536 q 78 694 78 635 q 97 765 78 728 q 165 844 117 803 q 285 919 214 886 q 472 974 356 953 q 731 996 588 996 q 1103 935 960 996 q 1246 774 1246 875 q 1156 622 1246 701 q 929 525 1067 542 l 926 514 q 1094 447 1022 503 q 1167 319 1167 392 q 1147 241 1167 282 q 1077 153 1128 200 q 950 68 1026 106 q 746 6 874 31 q 460 -18 618 -18 m 606 531 q 735 551 688 531 q 782 599 782 572 q 638 646 782 646 q 513 628 561 646 q 465 579 465 611 q 606 531 465 531 m 554 336 q 695 356 643 336 q 747 413 747 376 q 589 464 747 464 q 449 444 503 464 q 394 390 394 425 q 554 336 394 336 z "},"9":{"ha":1286,"x_min":-6,"x_max":1238,"o":"m 353 -21 q -6 10 144 -21 l 89 364 q 375 333 215 333 q 619 373 513 333 q 749 472 726 413 l 739 472 q 421 406 660 406 q 14 600 14 406 q 51 731 14 665 q 163 856 88 796 q 376 955 238 917 q 694 993 514 993 q 1238 664 1238 993 q 1212 486 1238 575 q 1121 304 1186 397 q 958 140 1056 211 q 704 24 861 69 q 353 -21 547 -21 m 594 504 q 776 576 776 504 q 624 633 776 633 q 490 610 539 633 q 440 557 440 588 q 594 504 440 504 z "}," ":{"ha":374,"x_min":0,"x_max":0,"o":""},"!":{"ha":518,"x_min":-94,"x_max":540,"o":"m 315 360 l 31 360 l 135 972 l 540 972 l 315 360 m 215 27 q 184 6 215 27 q 68 -15 153 -15 q -56 28 -17 -15 q -75 144 -94 71 q 8 261 -54 218 q 154 304 69 304 q 278 261 239 304 q 297 143 317 218 q 215 27 276 69 z "},"\"":{"ha":753,"x_min":32,"x_max":771,"o":"m 264 525 l 32 525 l 131 972 l 407 972 l 264 525 m 628 525 l 397 525 l 494 972 l 771 972 l 628 525 z "},"#":{"ha":1251,"x_min":-104,"x_max":1240,"o":"m 279 0 l -54 0 l 46 232 l -104 232 l -53 401 l 117 401 l 186 561 l 58 561 l 111 729 l 258 729 l 357 963 l 690 963 l 592 729 l 758 729 l 857 963 l 1189 963 l 1090 729 l 1240 729 l 1188 561 l 1018 561 l 949 401 l 1067 401 l 1015 232 l 878 232 l 778 0 l 446 0 l 546 232 l 378 232 l 279 0 m 518 561 l 449 401 l 615 401 l 685 561 l 518 561 z "},"$":{"ha":1181,"x_min":-139,"x_max":1131,"o":"m 463 -160 l 257 -160 l 296 -15 q 51 20 175 -4 q -139 72 -74 44 l -21 472 q 522 349 189 349 q 653 357 611 349 q 701 389 694 365 q 679 406 704 399 q 483 422 661 410 q 75 536 169 446 q 35 704 7 600 q 207 905 71 839 q 565 988 343 971 l 604 1131 l 808 1131 l 769 989 q 1131 910 1000 974 l 1021 532 q 821 597 963 568 q 575 625 679 625 q 385 585 396 625 q 404 563 381 571 q 471 552 428 554 q 569 548 514 550 q 686 542 625 546 q 808 530 747 539 q 921 505 869 521 q 1009 460 972 489 q 1059 390 1046 432 q 1057 288 1072 349 q 500 -18 983 10 l 463 -160 z "},"%":{"ha":1424,"x_min":-1,"x_max":1313,"o":"m 235 426 q 57 506 115 426 q 31 707 -1 585 q 165 909 64 831 q 386 988 265 988 q 565 909 507 988 q 590 707 624 831 q 457 506 558 585 q 235 426 356 426 m 381 0 l 122 0 l 931 972 l 1188 972 l 381 0 m 283 603 q 356 632 322 603 q 403 707 390 661 q 398 783 417 754 q 339 811 379 811 q 265 783 299 811 q 217 707 231 754 q 224 632 204 661 q 283 603 243 603 m 1147 63 q 1096 24 1147 63 q 925 -15 1046 -15 q 747 63 804 -15 q 721 265 689 142 q 854 467 753 388 q 1076 546 956 546 q 1254 467 1196 546 q 1281 265 1313 388 q 1147 63 1247 142 m 914 190 q 924 175 914 190 q 974 161 933 161 q 1047 190 1014 161 q 1094 265 1081 218 q 1088 340 1107 311 q 1029 369 1069 369 q 955 341 989 369 q 908 265 921 313 q 914 190 894 218 z "},"&":{"ha":1358,"x_min":-132,"x_max":1296,"o":"m 488 -24 q 21 53 174 -24 q -92 283 -132 131 q -15 399 -74 351 q 113 467 43 446 q 268 494 183 489 l 272 510 q 83 736 35 554 q 290 926 117 861 q 763 990 463 990 q 1024 979 865 990 l 933 643 q 722 650 825 650 q 446 601 458 650 q 449 578 442 588 q 478 562 457 568 q 536 553 500 556 q 628 550 572 550 l 660 550 l 629 436 l 550 436 q 340 378 357 436 q 360 343 335 357 q 452 322 385 329 q 632 314 519 314 q 686 317 668 314 l 749 550 l 1296 550 l 1265 436 l 1117 436 l 1003 13 q 766 -12 935 -1 q 488 -24 597 -24 z "},"'":{"ha":393,"x_min":35,"x_max":410,"o":"m 267 525 l 35 525 l 133 972 l 410 972 l 267 525 z "},"(":{"ha":631,"x_min":-54,"x_max":650,"o":"m 438 82 l 261 -118 q 15 115 85 -39 q 3 478 -54 268 q 210 841 60 688 q 579 1072 361 994 l 650 871 q 351 476 421 739 q 438 82 282 217 z "},")":{"ha":629,"x_min":-137,"x_max":567,"o":"m -68 -118 l -137 82 q 161 476 90 215 q 74 871 231 739 l 253 1072 q 497 840 428 993 q 510 478 567 688 q 302 115 453 268 q -68 -118 151 -39 z "},"*":{"ha":786,"x_min":-36,"x_max":769,"o":"m 360 219 l 172 219 l 253 463 l 14 326 l -36 489 l 211 596 l 22 703 l 160 867 l 325 732 l 374 972 l 563 972 l 481 731 l 718 867 l 769 703 l 521 596 l 711 489 l 572 326 l 408 461 l 360 219 z "},"+":{"ha":965,"x_min":-47,"x_max":897,"o":"m 453 110 l 200 110 l 269 369 l -47 369 l 13 594 l 329 594 l 399 853 l 650 853 l 582 594 l 897 594 l 838 369 l 522 369 l 453 110 z "},",":{"ha":501,"x_min":-104,"x_max":318,"o":"m -12 -215 l -76 -106 q 14 -56 -32 -86 q 74 -4 60 -26 q 32 -11 50 -11 q -69 33 -35 -11 q -85 151 -104 78 q 1 272 -64 228 q 151 317 67 317 q 278 265 238 317 q 293 122 318 213 q 174 -84 263 8 q -12 -215 86 -176 z "},"-":{"ha":760,"x_min":-54,"x_max":683,"o":"m 622 336 l -54 336 l 8 571 l 683 571 l 622 336 z "},".":{"ha":507,"x_min":-106,"x_max":322,"o":"m 215 31 q 182 8 215 31 q 64 -14 149 -14 q -63 31 -21 -14 q -85 153 -106 75 q 2 274 -64 229 q 154 318 68 318 q 281 274 239 318 q 301 151 322 229 q 215 31 281 75 z "},"/":{"ha":799,"x_min":-186,"x_max":874,"o":"m 136 -3 l -186 -3 l 550 971 l 874 971 l 136 -3 z "},":":{"ha":499,"x_min":-108,"x_max":447,"o":"m 341 501 q 308 478 341 501 q 190 456 275 456 q 63 501 106 456 q 42 622 21 546 q 128 744 63 699 q 279 789 194 789 q 406 744 364 789 q 426 621 447 699 q 341 501 407 546 m 210 17 q 177 -6 210 17 q 60 -28 144 -28 q -67 17 -25 -28 q -87 139 -108 61 q -1 260 -67 215 q 150 306 65 306 q 276 260 235 306 q 297 138 318 215 q 210 17 276 61 z "},";":{"ha":501,"x_min":-104,"x_max":446,"o":"m 338 490 q 305 468 338 490 q 188 446 272 446 q 60 490 103 446 q 39 613 18 535 q 126 733 60 689 q 276 778 192 778 q 403 733 361 778 q 425 611 446 689 q 338 490 404 535 m -12 -219 l -75 -110 q 15 -60 -31 -90 q 72 -8 61 -29 q 32 -15 51 -15 q -69 29 -35 -15 q -85 147 -104 74 q 2 268 -62 224 q 151 313 67 313 q 278 260 238 313 q 293 118 318 207 q 174 -88 261 4 q -12 -219 86 -181 z "},"<":{"ha":774,"x_min":-74,"x_max":775,"o":"m 654 399 l 579 117 l -74 332 l 6 631 l 775 846 l 699 564 l 258 481 l 654 399 z "},"=":{"ha":965,"x_min":-94,"x_max":946,"o":"m 886 547 l 1 547 l 61 772 l 946 772 l 886 547 m 789 190 l -94 190 l -33 418 l 850 418 l 789 190 z "},">":{"ha":806,"x_min":-103,"x_max":744,"o":"m 664 332 l -103 117 l -28 399 l 413 482 l 17 564 l 92 846 l 744 631 l 664 332 z "},"?":{"ha":919,"x_min":22,"x_max":933,"o":"m 481 371 l 204 371 l 208 525 l 238 525 q 453 549 389 525 q 529 622 517 574 q 503 682 539 658 q 397 706 467 706 q 226 692 317 706 q 84 665 135 678 q 22 646 33 651 l 100 935 q 156 951 113 940 q 292 975 199 963 q 479 988 385 988 q 818 915 703 988 q 899 718 933 842 q 778 550 869 611 q 525 464 686 489 l 481 371 m 240 -15 q 117 28 157 -14 q 97 144 78 71 q 179 262 117 218 q 326 306 242 306 q 450 262 411 306 q 468 144 489 218 q 385 27 447 69 q 240 -15 324 -15 z "},"@":{"ha":1457,"x_min":-153,"x_max":1417,"o":"m 424 -267 q -20 -112 113 -267 q -57 318 -153 42 q 285 766 40 600 q 843 931 529 932 q 1284 778 1151 931 q 1324 360 1417 625 q 896 21 1210 21 q 671 132 697 21 q 551 53 621 85 q 413 22 482 22 q 225 100 279 22 q 217 311 171 178 q 388 553 268 460 q 646 646 507 646 q 755 616 710 646 q 814 539 800 586 l 850 617 l 1121 617 l 988 275 q 974 226 978 246 q 972 185 969 206 q 990 155 974 165 q 1039 144 1007 144 q 1215 361 1147 144 q 1185 706 1292 581 q 807 831 1078 831 q 334 694 533 832 q 51 318 135 557 q 81 -40 -28 89 q 460 -168 189 -168 q 677 -148 567 -168 q 860 -97 788 -128 l 828 -204 q 424 -267 663 -267 m 568 214 q 674 256 621 214 q 747 351 728 297 q 737 424 764 397 q 660 451 710 451 q 557 410 607 451 q 489 314 507 369 q 495 241 472 268 q 568 214 518 214 z "},"A":{"ha":1350,"x_min":-203,"x_max":1181,"o":"m 440 192 l 351 0 l -203 0 l 519 972 l 982 972 l 1181 0 l 628 0 l 642 192 l 440 192 m 658 583 l 633 583 l 504 310 l 639 310 l 658 583 z "},"B":{"ha":1263,"x_min":-147,"x_max":1211,"o":"m 664 0 l -147 0 l 114 972 l 854 972 q 1117 924 1024 972 q 1211 786 1211 875 q 1094 585 1211 657 q 806 514 976 514 l 799 488 q 1138 315 1138 488 q 1001 83 1138 165 q 664 0 865 0 m 408 610 l 385 526 l 682 526 q 751 540 725 526 q 778 576 778 553 q 703 610 778 610 l 408 610 m 367 460 l 342 363 l 654 363 q 728 379 701 363 q 754 422 754 396 q 681 460 754 460 l 367 460 z "},"C":{"ha":1249,"x_min":-53,"x_max":1256,"o":"m 542 -21 q 103 66 260 -21 q -53 335 -53 153 q -24 522 -53 431 q 71 700 4 614 q 235 851 138 786 q 483 954 333 915 q 815 993 632 993 q 1256 936 1054 993 l 1113 503 q 947 562 1054 538 q 731 586 840 586 q 453 560 547 586 q 360 472 360 535 q 449 404 360 422 q 714 386 538 386 q 950 411 832 386 q 1149 472 1068 436 l 1032 31 q 542 -21 813 -21 z "},"D":{"ha":1281,"x_min":-147,"x_max":1219,"o":"m 431 0 l -147 0 l 114 972 l 692 972 q 1081 882 942 972 q 1219 625 1219 792 q 1192 457 1219 542 q 1104 290 1165 372 q 954 143 1043 207 q 730 40 865 79 q 431 0 594 0 m 622 574 l 401 574 l 356 400 l 576 400 q 739 426 678 400 q 800 501 800 453 q 622 574 800 574 z "},"E":{"ha":1174,"x_min":-147,"x_max":1182,"o":"m 1079 592 l 404 606 l 388 540 l 904 554 l 869 426 l 360 440 l 340 369 l 1067 406 l 958 0 l -147 0 l 114 972 l 1182 972 l 1079 592 z "},"F":{"ha":1126,"x_min":-147,"x_max":1174,"o":"m 294 0 l -147 0 l 114 972 l 1174 972 l 1061 553 l 400 589 l 378 507 l 918 521 l 868 329 l 336 354 l 294 0 z "},"G":{"ha":1414,"x_min":-56,"x_max":1376,"o":"m 375 -21 q 56 66 168 -21 q -56 315 -56 153 q 176 799 -56 606 q 790 993 408 993 q 1247 956 1046 993 l 1107 583 q 708 615 922 615 q 448 576 543 615 q 353 463 353 536 q 581 364 353 364 q 724 382 665 364 q 789 425 782 400 l 496 429 l 532 565 l 1376 565 l 1332 404 l 1257 404 l 1154 0 l 757 0 l 946 396 l 917 396 q 691 74 822 168 q 375 -21 560 -21 z "},"H":{"ha":1288,"x_min":-147,"x_max":1324,"o":"m 311 0 l -147 0 l 114 972 l 572 972 l 415 615 l 831 615 l 867 972 l 1324 972 l 1063 0 l 606 0 l 765 371 l 350 371 l 311 0 z "},"I":{"ha":1088,"x_min":-158,"x_max":1135,"o":"m -8 558 l 103 972 l 1135 972 l 1024 558 l 697 583 l 647 390 l 985 414 l 874 0 l -158 0 l -47 414 l 279 390 l 332 583 l -8 558 z "},"J":{"ha":1118,"x_min":-150,"x_max":1165,"o":"m 246 -21 q -150 31 0 -21 l -22 454 q 91 425 6 440 q 239 410 176 410 q 539 528 522 410 l 546 569 l 19 550 l 132 972 l 1165 972 l 1053 556 l 938 561 l 918 421 q 710 95 897 211 q 246 -21 522 -21 z "},"K":{"ha":1240,"x_min":-147,"x_max":1299,"o":"m 322 224 l 303 0 l -147 0 l 114 972 l 544 972 l 372 499 l 394 499 l 649 972 l 1299 972 l 513 513 l 524 489 q 786 596 665 596 q 1063 430 1000 596 q 1019 0 1126 264 l 532 0 q 618 213 593 118 q 619 372 643 308 q 514 435 596 435 q 379 373 431 435 q 322 224 328 311 z "},"L":{"ha":1118,"x_min":-147,"x_max":1024,"o":"m 349 413 l 1024 438 l 907 0 l -147 0 l 114 972 l 538 972 l 349 413 z "},"M":{"ha":1526,"x_min":-151,"x_max":1465,"o":"m 365 0 l -151 0 l 210 972 l 717 972 l 679 428 l 704 428 l 960 972 l 1465 972 l 1306 0 l 788 0 l 1006 536 l 979 540 l 689 81 l 508 81 l 464 540 l 436 536 l 365 0 z "},"N":{"ha":1321,"x_min":-147,"x_max":1357,"o":"m 1096 0 l 742 0 l 388 500 l 364 492 l 343 0 l -147 0 l 114 972 l 476 972 l 838 536 l 864 544 l 888 972 l 1357 972 l 1096 0 z "},"O":{"ha":1356,"x_min":-51,"x_max":1296,"o":"m 486 -21 q 92 74 235 -21 q -51 342 -51 168 q -23 514 -51 426 q 69 688 6 601 q 224 842 133 775 q 454 951 315 910 q 758 993 593 993 q 1153 899 1010 993 q 1296 632 1296 806 q 1275 490 1296 563 q 1214 343 1254 417 q 1106 204 1174 269 q 952 88 1039 139 q 745 8 865 38 q 486 -21 625 -21 m 765 343 q 840 363 813 343 q 868 414 868 383 q 794 513 868 461 q 628 597 719 565 q 481 629 538 629 q 403 609 433 629 q 374 558 374 589 q 449 460 374 513 q 616 376 524 408 q 765 343 708 343 z "},"P":{"ha":1233,"x_min":-147,"x_max":1208,"o":"m 281 -1 l -147 0 l 114 972 l 793 972 q 1099 907 990 971 q 1208 715 1208 843 q 1124 472 1208 576 q 903 315 1040 368 q 601 263 767 263 l 318 263 l 281 -1 m 400 565 l 371 458 l 646 458 q 769 515 754 458 q 749 553 775 542 q 675 565 722 565 l 400 565 z "},"Q":{"ha":1353,"x_min":-51,"x_max":1296,"o":"m 1117 -274 l 429 -274 l 475 -19 q 89 77 229 -17 q -51 342 -51 171 q -31 484 -51 411 q 31 631 -10 557 q 138 769 71 704 q 292 884 206 833 q 499 964 379 935 q 758 993 619 993 q 1153 899 1010 993 q 1296 632 1296 806 q 1257 435 1296 535 q 1143 240 1218 335 q 938 77 1068 146 q 643 -11 807 8 l 643 -39 l 1188 67 l 1117 -274 m 765 343 q 842 364 814 343 q 869 417 869 385 q 794 514 869 463 q 628 597 719 565 q 481 629 536 629 q 403 609 433 629 q 374 558 374 589 q 449 460 374 513 q 616 376 524 408 q 765 343 708 343 z "},"R":{"ha":1258,"x_min":-147,"x_max":1224,"o":"m 517 351 l 344 351 l 279 0 l -147 0 l 114 972 l 793 972 q 1113 922 1001 971 q 1224 758 1224 872 q 651 424 1224 424 l 644 400 l 765 400 q 1050 294 974 400 q 1050 0 1126 188 l 557 0 q 617 133 596 72 q 639 244 638 193 q 610 323 640 294 q 517 351 579 351 m 672 569 l 400 569 l 376 476 l 658 476 q 741 490 710 476 q 772 529 772 504 q 748 561 772 553 q 672 569 724 569 z "},"S":{"ha":1263,"x_min":-137,"x_max":1249,"o":"m 458 -21 q 140 7 328 -21 q -137 72 -47 35 l -19 519 q 202 394 54 439 q 546 350 350 350 q 683 363 633 350 q 733 397 733 376 q 660 429 733 421 q 484 442 588 438 q 276 460 381 447 q 99 520 172 474 q 26 644 26 567 q 86 810 26 739 q 247 919 146 881 q 461 975 347 957 q 701 993 575 993 q 996 967 831 993 q 1249 901 1161 942 l 1086 510 q 879 594 1004 563 q 619 625 754 625 q 418 583 418 625 q 471 551 418 561 q 603 539 524 540 q 776 530 683 538 q 949 507 869 522 q 1082 450 1029 492 q 1135 344 1135 408 q 1076 179 1135 251 q 919 65 1017 107 q 703 1 821 22 q 458 -21 586 -21 z "},"T":{"ha":1128,"x_min":-14,"x_max":1176,"o":"m 1176 972 l 1064 550 l 703 564 l 578 0 l 176 0 l 356 564 l -14 550 l 101 972 l 1176 972 z "},"U":{"ha":1247,"x_min":-51,"x_max":1286,"o":"m 432 -21 q 73 64 197 -21 q -51 304 -51 149 q -33 433 -51 367 l 111 972 l 536 972 l 408 613 q 392 531 392 569 q 431 442 392 475 q 547 410 471 410 q 715 466 650 410 q 796 613 779 522 l 861 972 l 1286 972 l 1142 433 q 898 99 1085 219 q 432 -21 711 -21 z "},"V":{"ha":1350,"x_min":58,"x_max":1442,"o":"m 721 0 l 258 0 l 58 972 l 601 972 l 596 440 l 621 440 l 900 972 l 1442 972 l 721 0 z "},"W":{"ha":1621,"x_min":50,"x_max":1696,"o":"m 1199 0 l 724 0 l 792 576 l 767 576 l 525 0 l 50 0 l 75 972 l 600 972 l 440 392 l 463 389 l 746 915 l 993 915 l 993 389 l 1018 392 l 1171 972 l 1696 972 l 1199 0 z "},"X":{"ha":1400,"x_min":-185,"x_max":1446,"o":"m 435 0 l -185 0 l 403 500 l 104 972 l 707 972 l 671 632 l 697 632 l 842 972 l 1446 972 l 892 500 l 1213 0 l 590 0 l 628 374 l 601 374 l 435 0 z "},"Y":{"ha":1301,"x_min":78,"x_max":1374,"o":"m 638 594 l 828 972 l 1374 972 l 761 369 l 690 0 l 240 0 l 368 369 l 78 972 l 622 972 l 611 594 l 638 594 z "},"Z":{"ha":1219,"x_min":-158,"x_max":1218,"o":"m 546 410 l 546 386 l 1122 436 l 1006 0 l -158 0 l -76 304 l 521 551 l 521 575 l 6 524 l 125 972 l 1218 972 l 1139 676 l 546 410 z "},"[":{"ha":588,"x_min":-142,"x_max":638,"o":"m 363 -51 l -142 -51 l 133 972 l 638 972 l 569 725 l 399 725 l 257 197 l 428 197 l 363 -51 z "},"\\":{"ha":800,"x_min":76,"x_max":614,"o":"m 614 0 l 292 0 l 76 972 l 399 972 l 614 0 z "},"]":{"ha":585,"x_min":-176,"x_max":603,"o":"m 328 -51 l -176 -51 l -110 197 l 63 197 l 203 725 l 32 725 l 99 972 l 603 972 l 328 -51 z "},"^":{"ha":1036,"x_min":-22,"x_max":881,"o":"m 260 329 l -22 329 l 421 972 l 785 972 l 881 329 l 599 329 l 533 717 l 260 329 z "},"_":{"ha":856,"x_min":-254,"x_max":671,"o":"m 610 -239 l -254 -239 l -193 -12 l 671 -12 l 610 -239 z "},"a":{"ha":1082,"x_min":-96,"x_max":1053,"o":"m 186 -21 q -17 56 61 -21 q -96 251 -96 132 q 31 575 -96 435 q 339 715 158 715 q 547 644 464 715 q 618 463 631 574 l 639 463 l 651 694 l 1053 694 l 865 0 l 476 0 l 572 213 l 551 213 q 401 41 500 103 q 186 -21 303 -21 m 538 268 q 589 307 589 268 q 490 396 589 351 q 317 440 390 440 q 267 404 267 440 q 367 315 267 363 q 538 268 468 268 z "},"b":{"ha":1083,"x_min":-156,"x_max":993,"o":"m 568 -21 q 355 45 443 -21 q 274 213 267 111 l 253 213 l 233 0 l -156 0 l 106 972 l 511 972 l 318 463 l 339 463 q 491 649 392 582 q 710 715 590 715 q 917 646 840 715 q 993 461 993 576 q 869 126 993 272 q 568 -21 746 -21 m 574 232 q 625 271 625 232 q 524 358 625 311 q 353 404 424 404 q 301 368 301 404 q 402 279 301 326 q 574 232 503 232 z "},"c":{"ha":885,"x_min":-90,"x_max":835,"o":"m 313 -21 q 18 51 126 -21 q -90 250 -90 122 q -70 374 -90 311 q -3 498 -50 436 q 113 608 44 560 q 284 685 181 656 q 513 715 388 715 q 835 683 697 715 l 725 363 q 496 399 614 399 q 324 387 378 399 q 271 346 271 375 q 322 310 271 319 q 485 301 374 301 q 771 354 639 301 l 683 24 q 313 -21 531 -21 z "},"d":{"ha":1082,"x_min":-96,"x_max":1126,"o":"m 186 -21 q -17 56 61 -21 q -96 251 -96 132 q 31 577 -96 439 q 339 715 158 715 q 547 644 464 715 q 618 463 631 574 l 639 463 l 722 972 l 1126 972 l 865 0 l 476 0 l 572 213 l 551 213 q 401 41 500 103 q 186 -21 303 -21 m 538 268 q 589 307 589 268 q 488 394 589 349 q 317 440 388 440 q 267 404 267 440 q 367 315 267 363 q 538 268 468 268 z "},"e":{"ha":974,"x_min":-96,"x_max":889,"o":"m 339 -21 q 15 58 125 -21 q -86 278 -96 136 q -44 435 -82 360 q 64 575 -6 511 q 246 677 133 639 q 499 715 358 715 q 790 638 692 715 q 879 431 889 561 q 846 317 876 358 l 250 317 q 272 288 246 301 q 350 266 299 274 q 467 258 401 258 q 803 307 663 258 l 732 36 q 339 -21 564 -21 m 267 369 l 554 369 q 524 428 558 407 q 432 450 490 450 q 267 369 311 450 z "},"f":{"ha":750,"x_min":-78,"x_max":782,"o":"m 322 0 l -56 0 l 49 385 l -78 374 l 8 694 l 131 693 l 147 756 q 294 951 181 882 q 572 1019 408 1019 q 782 986 679 1019 l 696 750 q 604 768 650 768 q 489 722 501 768 l 481 693 l 733 694 l 647 374 l 408 385 l 322 0 z "},"g":{"ha":1082,"x_min":-92,"x_max":1053,"o":"m 164 -299 q -65 -281 107 -299 l -6 11 q 232 -19 94 -19 q 422 29 331 -19 q 550 161 513 78 l 572 213 l 551 213 q 203 13 456 13 q -11 78 69 13 q -92 261 -92 143 q 26 576 -92 436 q 317 715 144 715 q 540 644 449 715 q 618 463 631 574 l 639 463 l 651 694 l 1053 694 l 901 132 q 676 -185 849 -72 q 164 -299 503 -299 m 538 268 q 589 307 589 268 q 488 394 589 349 q 317 440 388 440 q 267 404 267 440 q 367 315 267 363 q 538 268 468 268 z "},"h":{"ha":1011,"x_min":-156,"x_max":931,"o":"m 217 0 l -156 0 l 106 972 l 511 972 l 322 444 l 340 444 q 492 642 397 568 q 697 715 586 715 q 873 667 815 715 q 931 532 931 618 q 913 418 931 488 l 800 0 l 415 0 l 507 231 q 526 306 526 274 q 438 383 526 383 q 326 340 376 383 q 261 231 275 297 l 217 0 z "},"i":{"ha":522,"x_min":-79,"x_max":558,"o":"m 457 772 q 424 753 457 772 q 297 733 390 733 q 158 772 204 733 q 131 875 113 811 q 213 978 147 939 q 374 1017 279 1017 q 513 978 467 1017 q 540 875 558 940 q 457 772 524 811 m 314 0 l -47 0 l 51 371 l -79 371 l 8 694 l 500 694 l 314 0 z "},"j":{"ha":565,"x_min":-301,"x_max":613,"o":"m 511 772 q 478 753 511 772 q 351 733 444 733 q 213 772 258 733 q 185 875 167 811 q 267 978 201 940 q 426 1017 333 1017 q 567 978 521 1017 q 594 875 613 940 q 511 772 578 811 m -76 -296 q -301 -267 -203 -296 l -212 -31 q -121 -47 -158 -47 q -10 40 -35 -47 l 79 371 l -74 371 l 13 694 l 526 694 l 342 4 q 202 -215 304 -135 q -76 -296 100 -296 z "},"k":{"ha":1056,"x_min":-156,"x_max":1042,"o":"m 254 158 l 236 0 l -156 0 l 106 972 l 508 972 l 282 365 l 296 365 l 486 694 l 1042 694 l 394 368 l 400 353 q 622 429 510 429 q 856 311 800 429 q 867 0 913 193 l 458 0 q 492 109 481 57 q 502 210 503 161 q 475 287 501 258 q 397 314 449 315 q 300 269 339 313 q 254 158 261 226 z "},"l":{"ha":564,"x_min":-156,"x_max":508,"o":"m 283 324 l 457 324 l 369 0 l -156 0 l 106 972 l 508 972 l 283 324 z "},"m":{"ha":1524,"x_min":-156,"x_max":1446,"o":"m 208 0 l -156 0 l 31 694 l 401 694 l 314 444 l 331 444 q 478 642 385 568 q 676 715 571 715 q 883 551 883 715 q 865 444 883 510 l 882 444 q 1033 641 936 567 q 1236 715 1129 715 q 1446 547 1446 715 q 1425 418 1446 499 l 1313 0 l 939 0 l 1035 239 q 1053 315 1053 283 q 974 383 1053 383 q 872 343 915 383 q 811 231 829 303 l 754 0 l 381 0 l 475 239 q 493 317 493 286 q 414 383 493 383 q 311 343 356 383 q 253 231 267 303 l 208 0 z "},"n":{"ha":1022,"x_min":-156,"x_max":940,"o":"m 272 231 l 228 0 l -156 0 l 31 694 l 421 694 l 333 444 l 351 444 q 502 642 407 568 q 706 715 597 715 q 883 667 825 715 q 940 531 940 618 q 924 418 940 483 l 811 0 l 428 0 l 522 239 q 540 308 540 282 q 516 363 540 343 q 447 383 492 383 q 337 342 388 383 q 272 231 286 300 z "},"o":{"ha":1019,"x_min":-92,"x_max":925,"o":"m 317 -21 q 16 50 124 -21 q -92 246 -92 121 q -6 488 -92 379 q 217 656 79 597 q 514 715 356 715 q 817 644 708 715 q 925 446 925 574 q 840 204 925 313 q 616 38 754 96 q 317 -21 478 -21 m 519 263 q 574 296 574 263 q 476 385 574 336 q 314 433 378 433 q 260 400 260 433 q 360 313 260 363 q 519 263 460 263 z "},"p":{"ha":1082,"x_min":-231,"x_max":992,"o":"m 175 -278 l -231 -278 l 31 694 l 419 694 l 325 482 l 344 482 q 499 653 396 590 q 721 715 603 715 q 917 644 843 715 q 992 461 992 572 q 933 233 992 344 q 769 51 874 122 q 546 -21 665 -21 q 344 50 422 -21 q 278 232 265 121 l 258 232 l 175 -278 m 574 238 q 625 276 625 238 q 525 365 625 319 q 353 410 425 410 q 301 374 301 410 q 402 285 301 332 q 574 238 503 238 z "},"q":{"ha":1082,"x_min":-96,"x_max":1051,"o":"m 790 -278 l 386 -278 l 563 199 l 542 199 q 392 37 490 94 q 175 -21 294 -21 q -22 51 53 -21 q -96 233 -96 122 q -37 461 -96 350 q 126 644 22 572 q 350 715 231 715 q 550 650 471 715 q 624 482 629 585 l 643 482 l 663 694 l 1051 694 l 790 -278 m 538 276 q 589 315 589 276 q 488 403 589 357 q 317 449 388 449 q 267 413 267 449 q 367 324 267 371 q 538 276 468 276 z "},"r":{"ha":846,"x_min":-156,"x_max":826,"o":"m 240 186 l 207 0 l -156 0 l 31 694 l 401 694 l 314 444 l 331 444 q 483 641 385 567 q 689 715 581 715 q 826 679 779 715 l 697 285 q 633 354 681 325 q 528 383 585 383 q 331 325 407 383 q 240 186 254 267 z "},"s":{"ha":899,"x_min":-168,"x_max":799,"o":"m 232 -21 q 27 -7 150 -21 q -168 25 -96 7 l -83 343 q 95 290 -7 310 q 276 269 197 269 q 398 275 361 269 q 435 300 435 281 q 385 319 435 314 q 266 329 336 325 q 126 344 196 333 q 6 388 56 354 q -43 476 -43 421 q 35 614 -43 558 q 224 692 114 669 q 463 715 335 715 q 799 672 644 715 l 724 382 q 597 426 678 408 q 425 444 515 444 q 283 417 283 444 q 333 401 283 406 q 452 390 382 396 q 592 370 522 383 q 710 322 661 357 q 760 232 760 286 q 713 116 760 167 q 587 36 665 65 q 418 -7 508 7 q 232 -21 328 -21 z "},"t":{"ha":757,"x_min":-78,"x_max":740,"o":"m 299 -21 q 6 147 6 -21 q 17 222 6 172 l 58 374 l -78 374 l 7 694 q 358 950 288 694 l 574 950 l 506 694 l 740 694 l 654 374 l 419 374 l 415 356 q 432 315 408 328 q 507 301 456 301 q 633 325 556 301 l 575 29 q 299 -21 438 -21 z "},"u":{"ha":1022,"x_min":-106,"x_max":992,"o":"m 131 -21 q -47 28 11 -21 q -106 164 -106 76 q -87 276 -106 208 l 25 694 l 410 694 l 314 456 q 294 382 294 407 q 389 311 294 311 q 501 353 450 311 q 565 464 553 394 l 608 694 l 992 694 l 806 0 l 415 0 l 503 250 l 485 250 q 334 53 429 126 q 131 -21 239 -21 z "},"v":{"ha":1142,"x_min":3,"x_max":1139,"o":"m 642 0 l 128 0 l 3 694 l 500 694 l 456 306 l 479 306 l 636 694 l 1139 694 l 642 0 z "},"w":{"ha":1482,"x_min":-36,"x_max":1474,"o":"m 1146 0 l 658 0 l 665 379 l 647 379 l 451 0 l -36 0 l 8 694 l 543 694 l 374 299 l 397 297 l 647 661 l 818 661 l 869 297 l 897 299 l 939 694 l 1474 694 l 1146 0 z "},"x":{"ha":1142,"x_min":-181,"x_max":1118,"o":"m 324 0 l -181 0 l 218 356 l 26 694 l 528 694 l 486 415 l 510 415 l 611 694 l 1118 694 l 746 356 l 950 0 l 440 0 l 481 311 l 458 311 l 324 0 z "},"y":{"ha":1022,"x_min":-129,"x_max":992,"o":"m 100 -299 q -129 -281 43 -299 l -69 11 q 168 -19 31 -19 q 356 31 269 -19 q 475 174 443 81 l 503 250 l 485 250 q 353 72 429 128 q 165 15 276 15 q -29 65 38 15 q -96 204 -96 115 q -81 301 -96 243 l 25 694 l 410 694 l 313 456 q 294 382 294 411 q 389 311 294 311 q 503 353 451 311 q 565 464 556 394 l 599 694 l 992 694 l 838 132 q 760 -41 811 33 q 624 -176 710 -115 q 407 -267 539 -236 q 100 -299 275 -299 z "},"z":{"ha":940,"x_min":-165,"x_max":876,"o":"m 808 440 l 393 306 l 817 306 l 735 0 l -165 0 l -96 256 l 315 390 l -61 390 l 21 694 l 876 694 l 808 440 z "},"{":{"ha":625,"x_min":-101,"x_max":676,"o":"m 429 54 l 367 -179 q 48 -123 129 -179 q 6 78 -33 -67 l 32 169 q 16 273 51 246 q -101 300 -19 300 l -50 493 q 82 520 32 493 q 153 624 132 547 l 178 715 q 327 916 215 860 q 676 972 439 972 l 613 739 q 482 711 528 739 q 418 615 436 683 l 399 542 q 338 447 385 488 q 235 404 292 406 l 229 389 q 310 347 286 388 q 321 251 335 306 l 301 178 q 315 81 283 108 q 429 54 346 54 z "},"|":{"ha":446,"x_min":-149,"x_max":447,"o":"m 150 -135 l -149 -135 l 149 972 l 447 972 l 150 -135 z "},"}":{"ha":625,"x_min":-214,"x_max":564,"o":"m -214 -179 l -151 54 q -21 81 -67 54 q 44 178 25 108 l 64 251 q 124 347 78 306 q 228 389 171 388 l 233 404 q 152 447 176 406 q 142 542 128 488 l 161 615 q 149 711 179 683 q 33 739 118 739 l 96 972 q 413 916 332 972 q 456 715 494 860 l 431 624 q 446 520 410 547 q 564 493 482 493 l 513 300 q 381 273 431 300 q 310 169 331 246 l 285 78 q 135 -123 246 -67 q -214 -179 24 -179 z "},"~":{"ha":857,"x_min":-35,"x_max":729,"o":"m 29 275 l -35 499 q 214 600 71 600 q 370 573 281 600 q 506 546 460 546 q 665 603 596 546 l 729 382 q 483 278 622 278 q 326 305 418 278 q 192 332 233 332 q 29 275 114 332 z "},"¡":{"ha":518,"x_min":-197,"x_max":426,"o":"m 178 396 q 55 438 94 396 q 36 554 15 481 q 118 672 56 629 q 264 714 181 714 q 388 672 349 714 q 407 556 426 629 q 325 439 388 482 q 178 396 263 396 m 199 -274 l -197 -274 l 24 326 l 307 328 l 199 -274 z "},"¢":{"ha":938,"x_min":-69,"x_max":913,"o":"m 463 0 l 263 0 l 296 128 q 11 240 92 149 q -29 482 -69 332 q 141 724 11 632 q 488 838 271 817 l 524 972 l 724 972 l 689 844 q 913 818 847 836 l 835 538 q 719 558 797 549 q 578 568 642 568 q 311 483 335 568 q 359 419 300 442 q 536 397 418 397 q 705 408 613 397 q 832 428 797 418 l 757 149 q 496 121 692 129 l 463 0 z "},"£":{"ha":1163,"x_min":-117,"x_max":1183,"o":"m 960 0 l -117 0 l -26 339 q 71 357 25 340 q 126 411 117 374 l 133 438 l -54 438 l -22 554 l 164 554 l 210 725 q 408 922 243 851 q 817 993 574 993 q 1183 947 1000 993 l 1093 613 q 1043 622 1089 614 q 906 638 997 629 q 729 646 815 646 q 544 585 560 646 l 535 554 l 1000 554 l 969 438 l 504 438 l 501 425 q 424 357 486 375 l 421 349 l 1053 349 l 960 0 z "},"¤":{"ha":1132,"x_min":-100,"x_max":1131,"o":"m 138 208 l -42 111 l -100 279 l 32 356 q 40 506 18 421 q 121 664 63 590 l 24 742 l 174 911 l 308 807 q 615 869 442 869 q 885 810 781 869 l 1071 911 l 1131 742 l 1000 667 q 994 504 1019 593 q 918 351 971 417 l 1007 279 l 858 111 l 736 207 q 419 142 599 142 q 138 208 239 142 m 481 367 q 609 404 554 367 q 681 504 664 442 q 663 606 699 568 q 556 644 628 644 q 429 607 485 646 q 356 504 374 568 q 374 404 338 442 q 481 367 410 367 z "},"¥":{"ha":1290,"x_min":22,"x_max":1363,"o":"m 636 0 l 281 0 l 318 139 l 22 139 l 53 251 l 349 251 l 364 307 l 68 307 l 99 421 l 325 421 l 78 972 l 467 972 l 625 618 l 972 972 l 1363 972 l 818 421 l 1044 421 l 1014 307 l 718 307 l 704 251 l 999 251 l 968 139 l 674 139 l 636 0 z "},"¦":{"ha":421,"x_min":-129,"x_max":438,"o":"m 324 607 l 50 607 l 164 1032 l 438 1032 l 324 607 m 144 -62 l -129 -62 l -12 371 l 260 371 l 144 -62 z "},"§":{"ha":1049,"x_min":-104,"x_max":953,"o":"m 264 -185 q 102 -176 190 -185 q -42 -159 14 -168 q -104 -146 -97 -150 l -43 76 q 261 25 68 25 q 381 35 325 25 q 442 63 438 44 q 408 96 447 85 q 289 117 386 103 q 19 188 110 131 q -39 363 -71 246 q 100 544 -10 472 q 61 729 31 610 q 240 918 93 849 q 590 988 386 988 q 774 976 685 988 q 903 956 863 965 q 953 942 944 946 l 892 719 q 593 779 785 779 q 474 769 529 779 q 413 742 418 760 q 439 712 407 721 q 556 693 471 703 q 561 693 560 693 q 835 620 744 678 q 896 443 926 563 q 760 261 867 338 q 794 76 826 193 q 615 -114 763 -43 q 264 -185 468 -185 m 439 342 q 574 394 561 354 q 543 440 582 424 q 417 463 504 456 q 282 410 293 453 q 307 365 275 381 q 439 342 339 350 z "},"©":{"ha":1199,"x_min":-74,"x_max":1158,"o":"m 852 119 q 757 48 852 119 q 406 -24 663 -24 q 38 119 149 -24 q -15 482 -74 261 q 233 847 43 703 q 681 990 424 990 q 1048 848 938 990 q 1100 485 1158 706 q 852 119 1042 263 m 435 82 q 794 197 646 82 q 988 485 942 311 q 947 772 1033 658 q 653 885 861 885 q 295 770 443 885 q 100 482 147 656 q 140 195 54 308 q 435 82 226 82 m 504 213 q 263 286 338 213 q 224 488 189 360 q 373 690 257 614 q 657 767 489 767 q 763 759 703 767 q 842 740 824 751 l 800 581 q 736 605 786 594 q 650 615 686 615 q 488 581 556 615 q 406 490 421 546 q 436 397 389 432 q 569 363 483 363 q 767 403 706 363 l 724 240 q 626 220 697 228 q 504 213 556 213 z "},"«":{"ha":976,"x_min":-31,"x_max":971,"o":"m 390 106 l 114 106 l -31 453 l 300 800 l 576 800 l 240 453 l 390 106 m 785 106 l 508 106 l 364 453 l 694 800 l 971 800 l 635 453 l 785 106 z "},"¬":{"ha":839,"x_min":-32,"x_max":786,"o":"m 679 249 l 414 249 l 460 417 l -32 417 l 29 649 l 786 649 l 679 249 z "},"­":{"ha":839,"x_min":-32,"x_max":786,"o":"m 724 417 l -32 417 l 29 649 l 786 649 l 724 417 z "},"®":{"ha":1249,"x_min":-74,"x_max":1210,"o":"m 431 -24 q 44 119 163 -24 q -15 482 -74 261 q 240 847 43 703 q 706 990 436 990 q 1092 848 974 990 q 1151 485 1210 706 q 896 119 1092 263 q 431 -24 700 -24 m 460 82 q 833 197 681 82 q 1032 485 986 311 q 988 772 1079 658 q 678 885 897 885 q 304 770 457 885 q 104 482 151 656 q 149 195 57 308 q 460 82 240 82 m 418 233 l 231 233 l 374 769 l 706 769 q 883 722 826 769 q 914 581 939 674 q 760 421 882 468 l 840 233 l 622 233 l 571 392 l 461 392 l 418 233 m 525 628 l 493 513 l 632 513 q 724 571 708 513 q 664 628 738 628 l 525 628 z "},"°":{"ha":551,"x_min":15,"x_max":565,"o":"m 229 517 q 67 581 118 517 q 42 746 15 644 q 154 913 68 849 q 351 976 240 976 q 514 913 463 976 q 539 746 565 849 q 425 580 511 643 q 229 517 339 517 m 208 683 q 218 672 208 683 q 267 660 228 660 q 338 683 306 660 q 381 746 371 707 q 372 810 392 786 q 314 835 353 835 q 242 810 275 835 q 199 746 210 786 q 208 683 188 707 z "},"±":{"ha":918,"x_min":-144,"x_max":867,"o":"m 478 261 l 226 261 l 282 468 l -12 468 l 47 693 l 343 693 l 397 899 l 650 899 l 594 693 l 867 693 l 806 468 l 533 468 l 478 261 m 693 6 l -144 6 l -94 190 l 743 190 l 693 6 z "},"¶":{"ha":938,"x_min":-44,"x_max":992,"o":"m 729 1 l 440 1 l 508 257 l 378 257 q 60 351 164 257 q 1 617 -44 446 q 195 884 47 790 q 558 978 343 978 l 992 978 l 729 1 z "},"·":{"ha":510,"x_min":-22,"x_max":403,"o":"m 142 272 q 18 324 58 272 q -1 456 -22 376 q 88 583 19 532 q 239 635 157 635 q 363 583 322 635 q 383 454 403 532 q 293 324 363 376 q 142 272 224 272 z "},"»":{"ha":976,"x_min":-125,"x_max":878,"o":"m 151 106 l -125 106 l 213 453 l 61 800 l 338 800 l 483 453 l 151 106 m 546 106 l 269 106 l 608 453 l 457 800 l 732 800 l 878 453 l 546 106 z "},"¿":{"ha":919,"x_min":-189,"x_max":721,"o":"m 565 439 q 534 417 565 439 q 418 396 503 396 q 295 438 333 396 q 276 556 257 481 q 358 674 296 631 q 504 715 419 717 q 628 672 589 714 q 646 556 667 631 q 565 439 626 482 m 264 -287 q -74 -215 42 -287 q -154 -18 -189 -142 q -35 151 -126 89 q 221 238 57 213 l 263 329 l 539 329 l 535 175 l 488 175 q 289 150 350 175 q 215 78 228 125 q 242 19 206 43 q 349 -4 278 -4 q 520 10 429 -4 q 659 36 611 24 q 721 54 707 49 l 643 -233 q 588 -250 631 -239 q 451 -274 544 -261 q 264 -287 358 -287 z "},"À":{"ha":1350,"x_min":-203,"x_max":1181,"o":"m 903 1046 l 679 1046 l 440 1257 l 801 1257 l 903 1046 m 982 972 l 1181 0 l 628 0 l 642 192 l 440 192 l 351 0 l -203 0 l 519 972 l 982 972 m 658 583 l 633 583 l 504 310 l 639 310 l 658 583 z "},"Á":{"ha":1350,"x_min":-203,"x_max":1222,"o":"m 869 1046 l 646 1046 l 861 1257 l 1222 1257 l 869 1046 m 440 192 l 351 0 l -203 0 l 519 972 l 982 972 l 1181 0 l 628 0 l 642 192 l 440 192 m 658 583 l 633 583 l 504 310 l 639 310 l 658 583 z "},"Â":{"ha":1350,"x_min":-203,"x_max":1181,"o":"m 685 1044 l 400 1044 l 660 1256 l 996 1256 l 1142 1044 l 860 1044 l 796 1133 l 685 1044 m 628 0 l 642 192 l 440 192 l 351 0 l -203 0 l 519 972 l 982 972 l 1181 0 l 628 0 m 504 310 l 639 310 l 658 583 l 633 583 l 504 310 z "},"Ã":{"ha":1350,"x_min":-203,"x_max":1181,"o":"m 614 1065 l 469 1094 q 563 1242 499 1189 q 707 1294 628 1294 q 835 1257 765 1294 q 919 1228 888 1228 q 967 1242 949 1228 q 999 1297 985 1256 l 1143 1272 q 907 1071 1081 1071 q 769 1111 847 1071 q 690 1138 718 1138 q 614 1065 640 1138 m 440 192 l 351 0 l -203 0 l 519 972 l 982 972 l 1181 0 l 628 0 l 642 192 l 440 192 m 658 583 l 633 583 l 504 310 l 639 310 l 658 583 z "},"Ä":{"ha":1350,"x_min":-203,"x_max":1181,"o":"m 710 1076 q 684 1059 710 1076 q 589 1042 658 1042 q 485 1077 519 1042 q 467 1171 451 1113 q 536 1266 485 1232 q 658 1300 588 1300 q 761 1265 728 1300 q 778 1171 794 1231 q 710 1076 763 1111 m 1072 1076 q 1047 1059 1072 1076 q 951 1042 1021 1042 q 848 1077 882 1042 q 831 1171 814 1113 q 899 1265 847 1231 q 1019 1300 950 1300 q 1124 1265 1090 1300 q 1139 1171 1157 1231 q 1072 1076 1124 1111 m 1181 0 l 628 0 l 642 192 l 440 192 l 351 0 l -203 0 l 519 972 l 982 972 l 1181 0 m 633 583 l 504 310 l 639 310 l 658 583 l 633 583 z "},"Å":{"ha":1350,"x_min":-203,"x_max":1181,"o":"m 768 1033 q 609 1081 660 1033 q 581 1208 558 1128 q 678 1338 603 1290 q 863 1386 754 1386 q 1020 1338 969 1386 q 1049 1208 1071 1290 q 951 1081 1026 1128 q 768 1033 875 1033 m 797 1146 q 879 1208 861 1146 q 873 1253 886 1236 q 831 1269 860 1269 q 779 1253 801 1269 q 750 1208 757 1236 q 756 1163 743 1181 q 797 1146 769 1146 m 351 0 l -203 0 l 519 972 l 982 972 l 1181 0 l 628 0 l 642 192 l 440 192 l 351 0 m 633 583 l 504 310 l 639 310 l 658 583 l 633 583 z "},"Æ":{"ha":2017,"x_min":-196,"x_max":2014,"o":"m 407 0 l -196 0 l 674 972 l 2014 972 l 1917 611 l 1244 625 l 1229 564 l 1764 578 l 1722 421 l 1193 435 l 1172 353 l 1894 378 l 1793 0 l 689 0 l 746 213 l 540 213 l 407 0 m 808 632 l 625 349 l 783 349 l 858 632 l 808 632 z "},"Ç":{"ha":1249,"x_min":-53,"x_max":1256,"o":"m 360 472 q 449 404 360 422 q 714 386 538 386 q 950 411 832 386 q 1149 472 1068 436 l 1032 31 q 542 -21 813 -21 l 500 -21 l 457 -72 q 568 -83 519 -54 q 599 -175 617 -111 q 512 -276 582 -240 q 351 -311 442 -311 q 168 -264 228 -311 l 225 -169 q 371 -210 286 -210 q 451 -172 443 -210 q 444 -149 456 -157 q 411 -142 432 -140 q 368 -154 390 -143 l 297 -103 l 365 -11 q -53 335 -53 40 q -24 522 -53 431 q 71 700 4 614 q 235 851 138 786 q 483 954 333 915 q 815 993 632 993 q 1256 936 1054 993 l 1113 503 q 947 562 1054 538 q 731 586 840 586 q 453 560 547 586 q 360 472 360 535 z "},"È":{"ha":1174,"x_min":-147,"x_max":1182,"o":"m 796 1046 l 572 1046 l 333 1257 l 694 1257 l 796 1046 m 388 540 l 904 554 l 869 426 l 360 440 l 340 369 l 1067 406 l 958 0 l -147 0 l 114 972 l 1182 972 l 1079 592 l 404 606 l 388 540 z "},"É":{"ha":1174,"x_min":-147,"x_max":1182,"o":"m 763 1046 l 539 1046 l 754 1257 l 1115 1257 l 763 1046 m 1067 406 l 958 0 l -147 0 l 114 972 l 1182 972 l 1079 592 l 404 606 l 388 540 l 904 554 l 869 426 l 360 440 l 340 369 l 1067 406 z "},"Ê":{"ha":1174,"x_min":-147,"x_max":1182,"o":"m 578 1044 l 293 1044 l 553 1256 l 889 1256 l 1035 1044 l 753 1044 l 689 1133 l 578 1044 m 360 440 l 340 369 l 1067 406 l 958 0 l -147 0 l 114 972 l 1182 972 l 1079 592 l 404 606 l 388 540 l 904 554 l 869 426 l 360 440 z "},"Ë":{"ha":1174,"x_min":-147,"x_max":1182,"o":"m 603 1076 q 577 1059 603 1076 q 482 1042 551 1042 q 378 1077 413 1042 q 360 1171 344 1113 q 429 1266 378 1232 q 551 1300 481 1300 q 654 1265 621 1300 q 671 1171 688 1231 q 603 1076 656 1111 m 965 1076 q 940 1059 965 1076 q 844 1042 914 1042 q 741 1077 775 1042 q 724 1171 707 1113 q 792 1265 740 1231 q 913 1300 843 1300 q 1017 1265 983 1300 q 1032 1171 1050 1231 q 965 1076 1017 1111 m 869 426 l 360 440 l 340 369 l 1067 406 l 958 0 l -147 0 l 114 972 l 1182 972 l 1079 592 l 404 606 l 388 540 l 904 554 l 869 426 z "},"Ì":{"ha":1088,"x_min":-158,"x_max":1135,"o":"m 749 1046 l 525 1046 l 286 1257 l 647 1257 l 749 1046 m 1135 972 l 1024 558 l 697 583 l 647 390 l 985 414 l 874 0 l -158 0 l -47 414 l 279 390 l 332 583 l -8 558 l 103 972 l 1135 972 z "},"Í":{"ha":1088,"x_min":-158,"x_max":1135,"o":"m 715 1046 l 492 1046 l 707 1257 l 1068 1257 l 715 1046 m 985 414 l 874 0 l -158 0 l -47 414 l 279 390 l 332 583 l -8 558 l 103 972 l 1135 972 l 1024 558 l 697 583 l 647 390 l 985 414 z "},"Î":{"ha":1088,"x_min":-158,"x_max":1135,"o":"m 531 1044 l 246 1044 l 506 1256 l 842 1256 l 988 1044 l 706 1044 l 642 1133 l 531 1044 m 647 390 l 985 414 l 874 0 l -158 0 l -47 414 l 279 390 l 332 583 l -8 558 l 103 972 l 1135 972 l 1024 558 l 697 583 l 647 390 z "},"Ï":{"ha":1088,"x_min":-158,"x_max":1135,"o":"m 556 1076 q 530 1059 556 1076 q 435 1042 504 1042 q 331 1077 365 1042 q 313 1171 297 1113 q 382 1266 331 1232 q 504 1300 433 1300 q 607 1265 574 1300 q 624 1171 640 1231 q 556 1076 608 1111 m 918 1076 q 892 1059 918 1076 q 797 1042 867 1042 q 694 1077 728 1042 q 676 1171 660 1113 q 744 1265 693 1231 q 865 1300 796 1300 q 969 1265 936 1300 q 985 1171 1003 1231 q 918 1076 969 1111 m 697 583 l 647 390 l 985 414 l 874 0 l -158 0 l -47 414 l 279 390 l 332 583 l -8 558 l 103 972 l 1135 972 l 1024 558 l 697 583 z "},"Ð":{"ha":1383,"x_min":-68,"x_max":1365,"o":"m 532 0 l -44 0 l 75 447 l -68 447 l -46 529 l 97 529 l 217 972 l 793 972 q 1228 845 1092 972 q 1303 486 1365 718 q 1035 128 1240 256 q 532 0 829 0 m 471 447 l 458 400 l 678 400 q 901 486 878 400 q 865 551 911 529 q 725 574 819 574 l 504 574 l 493 529 l 707 529 l 685 447 l 471 447 z "},"Ñ":{"ha":1321,"x_min":-147,"x_max":1357,"o":"m 599 1065 l 454 1094 q 548 1242 483 1189 q 692 1294 613 1294 q 819 1257 750 1294 q 904 1228 872 1228 q 951 1242 933 1228 q 983 1297 969 1256 l 1128 1272 q 892 1071 1065 1071 q 754 1111 832 1071 q 675 1138 703 1138 q 599 1065 625 1138 m 1096 0 l 742 0 l 388 500 l 364 492 l 343 0 l -147 0 l 114 972 l 476 972 l 838 536 l 864 544 l 888 972 l 1357 972 l 1096 0 z "},"Ò":{"ha":1356,"x_min":-51,"x_max":1296,"o":"m 904 1046 l 681 1046 l 442 1257 l 803 1257 l 904 1046 m 486 -21 q 92 74 235 -21 q -51 342 -51 168 q -23 514 -51 426 q 69 688 6 601 q 224 842 133 775 q 454 951 315 910 q 758 993 593 993 q 1153 899 1010 993 q 1296 632 1296 806 q 1275 490 1296 563 q 1214 343 1254 417 q 1106 204 1174 269 q 952 88 1039 139 q 745 8 865 38 q 486 -21 625 -21 m 765 343 q 840 363 813 343 q 868 414 868 383 q 794 513 868 461 q 628 597 719 565 q 481 629 538 629 q 403 609 433 629 q 374 558 374 589 q 449 460 374 513 q 616 376 524 408 q 765 343 708 343 z "},"Ó":{"ha":1356,"x_min":-51,"x_max":1296,"o":"m 871 1046 l 647 1046 l 863 1257 l 1224 1257 l 871 1046 m 486 -21 q 92 74 235 -21 q -51 342 -51 168 q -23 514 -51 426 q 69 688 6 601 q 224 842 133 775 q 454 951 315 910 q 758 993 593 993 q 1153 899 1010 993 q 1296 632 1296 806 q 1275 490 1296 563 q 1214 343 1254 417 q 1106 204 1174 269 q 952 88 1039 139 q 745 8 865 38 q 486 -21 625 -21 m 765 343 q 840 363 813 343 q 868 414 868 383 q 794 513 868 461 q 628 597 719 565 q 481 629 538 629 q 403 609 433 629 q 374 558 374 589 q 449 460 374 513 q 616 376 524 408 q 765 343 708 343 z "},"Ô":{"ha":1356,"x_min":-51,"x_max":1296,"o":"m 686 1044 l 401 1044 l 661 1256 l 997 1256 l 1143 1044 l 861 1044 l 797 1133 l 686 1044 m 486 -21 q 92 74 235 -21 q -51 342 -51 168 q -23 514 -51 426 q 69 688 6 601 q 224 842 133 775 q 454 951 315 910 q 758 993 593 993 q 1153 899 1010 993 q 1296 632 1296 806 q 1275 490 1296 563 q 1214 343 1254 417 q 1106 204 1174 269 q 952 88 1039 139 q 745 8 865 38 q 486 -21 625 -21 m 765 343 q 840 363 813 343 q 868 414 868 383 q 794 513 868 461 q 628 597 719 565 q 481 629 538 629 q 403 609 433 629 q 374 558 374 589 q 449 460 374 513 q 616 376 524 408 q 765 343 708 343 z "},"Õ":{"ha":1356,"x_min":-51,"x_max":1296,"o":"m 615 1065 l 471 1094 q 565 1242 500 1189 q 708 1294 629 1294 q 836 1257 767 1294 q 921 1228 889 1228 q 968 1242 950 1228 q 1000 1297 986 1256 l 1144 1272 q 908 1071 1082 1071 q 771 1111 849 1071 q 692 1138 719 1138 q 615 1065 642 1138 m 486 -21 q 92 74 235 -21 q -51 342 -51 168 q -23 514 -51 426 q 69 688 6 601 q 224 842 133 775 q 454 951 315 910 q 758 993 593 993 q 1153 899 1010 993 q 1296 632 1296 806 q 1275 490 1296 563 q 1214 343 1254 417 q 1106 204 1174 269 q 952 88 1039 139 q 745 8 865 38 q 486 -21 625 -21 m 765 343 q 840 363 813 343 q 868 414 868 383 q 794 513 868 461 q 628 597 719 565 q 481 629 538 629 q 403 609 433 629 q 374 558 374 589 q 449 460 374 513 q 616 376 524 408 q 765 343 708 343 z "},"Ö":{"ha":1356,"x_min":-51,"x_max":1296,"o":"m 712 1076 q 686 1059 712 1076 q 590 1042 660 1042 q 487 1077 521 1042 q 468 1171 453 1113 q 538 1266 486 1232 q 660 1300 589 1300 q 763 1265 729 1300 q 779 1171 796 1231 q 712 1076 764 1111 m 1074 1076 q 1048 1059 1074 1076 q 953 1042 1022 1042 q 849 1077 883 1042 q 832 1171 815 1113 q 900 1265 849 1231 q 1021 1300 951 1300 q 1125 1265 1092 1300 q 1140 1171 1158 1231 q 1074 1076 1125 1111 m 486 -21 q 92 74 235 -21 q -51 342 -51 168 q -23 514 -51 426 q 69 688 6 601 q 224 842 133 775 q 454 951 315 910 q 758 993 593 993 q 1153 899 1010 993 q 1296 632 1296 806 q 1275 490 1296 563 q 1214 343 1254 417 q 1106 204 1174 269 q 952 88 1039 139 q 745 8 865 38 q 486 -21 625 -21 m 765 343 q 840 363 813 343 q 868 414 868 383 q 794 513 868 461 q 628 597 719 565 q 481 629 538 629 q 403 609 433 629 q 374 558 374 589 q 449 460 374 513 q 616 376 524 408 q 765 343 708 343 z "},"×":{"ha":833,"x_min":-47,"x_max":767,"o":"m 315 321 l 78 140 l -47 301 l 190 481 l 50 661 l 260 822 l 401 642 l 640 822 l 767 661 l 531 481 l 671 301 l 460 140 l 315 321 z "},"Ø":{"ha":1356,"x_min":-115,"x_max":1353,"o":"m 1307 993 l 1353 899 l 1233 821 q 1275 486 1329 689 q 1118 210 1232 325 q 842 37 1004 94 q 486 -21 681 -21 q 92 76 231 -21 l -67 -26 l -115 69 l 11 151 q -31 486 -85 283 q 247 860 33 728 q 758 993 461 993 q 1156 894 1015 993 l 1307 993 m 367 486 q 404 407 353 438 l 700 599 q 653 600 685 600 q 457 570 533 600 q 367 486 381 540 m 879 486 q 842 565 892 536 l 547 374 q 592 372 561 372 q 788 403 711 372 q 879 486 865 433 z "},"Ù":{"ha":1247,"x_min":-51,"x_max":1286,"o":"m 850 1046 l 626 1046 l 388 1257 l 749 1257 l 850 1046 m 432 -21 q 73 64 197 -21 q -51 304 -51 149 q -33 433 -51 367 l 111 972 l 536 972 l 408 613 q 392 531 392 569 q 431 442 392 475 q 547 410 471 410 q 715 466 650 410 q 796 613 779 522 l 861 972 l 1286 972 l 1142 433 q 898 99 1085 219 q 432 -21 711 -21 z "},"Ú":{"ha":1247,"x_min":-51,"x_max":1286,"o":"m 818 1046 l 594 1046 l 810 1257 l 1171 1257 l 818 1046 m 432 -21 q 73 64 197 -21 q -51 304 -51 149 q -33 433 -51 367 l 111 972 l 536 972 l 408 613 q 392 531 392 569 q 431 442 392 475 q 547 410 471 410 q 715 466 650 410 q 796 613 779 522 l 861 972 l 1286 972 l 1142 433 q 898 99 1085 219 q 432 -21 711 -21 z "},"Û":{"ha":1247,"x_min":-51,"x_max":1286,"o":"m 632 1044 l 347 1044 l 607 1256 l 943 1256 l 1089 1044 l 807 1044 l 743 1133 l 632 1044 m 432 -21 q 73 64 197 -21 q -51 304 -51 149 q -33 433 -51 367 l 111 972 l 536 972 l 408 613 q 392 531 392 569 q 431 442 392 475 q 547 410 471 410 q 715 466 650 410 q 796 613 779 522 l 861 972 l 1286 972 l 1142 433 q 898 99 1085 219 q 432 -21 711 -21 z "},"Ü":{"ha":1247,"x_min":-51,"x_max":1286,"o":"m 659 1076 q 633 1059 659 1076 q 538 1042 607 1042 q 434 1077 468 1042 q 415 1171 400 1113 q 485 1266 433 1232 q 607 1300 536 1300 q 710 1265 676 1300 q 726 1171 743 1231 q 659 1076 711 1111 m 1021 1076 q 995 1059 1021 1076 q 900 1042 969 1042 q 797 1077 831 1042 q 779 1171 763 1113 q 847 1265 796 1231 q 968 1300 899 1300 q 1072 1265 1039 1300 q 1088 1171 1106 1231 q 1021 1076 1072 1111 m 432 -21 q 73 64 197 -21 q -51 304 -51 149 q -33 433 -51 367 l 111 972 l 536 972 l 408 613 q 392 531 392 569 q 431 442 392 475 q 547 410 471 410 q 715 466 650 410 q 796 613 779 522 l 861 972 l 1286 972 l 1142 433 q 898 99 1085 219 q 432 -21 711 -21 z "},"Ý":{"ha":1301,"x_min":78,"x_max":1374,"o":"m 844 1046 l 621 1046 l 836 1257 l 1197 1257 l 844 1046 m 761 369 l 690 0 l 240 0 l 368 369 l 78 972 l 622 972 l 611 594 l 638 594 l 828 972 l 1374 972 l 761 369 z "},"Þ":{"ha":1233,"x_min":-147,"x_max":1213,"o":"m 263 0 l -147 0 l 114 972 l 515 972 l 481 863 l 763 863 q 1103 774 994 861 q 1167 513 1213 688 q 962 248 1119 339 q 574 157 804 157 l 290 157 l 263 0 m 371 460 l 343 354 l 617 354 q 740 407 726 354 q 722 447 749 435 q 646 460 696 460 l 371 460 z "},"ß":{"ha":1233,"x_min":-118,"x_max":1186,"o":"m 564 -21 q 336 4 453 -21 l 424 329 q 549 319 471 319 q 715 381 700 319 q 708 410 719 397 q 661 433 696 424 q 574 443 626 443 l 465 443 l 492 540 l 575 540 q 680 558 639 540 q 728 600 721 575 q 703 639 735 624 q 611 654 671 654 q 486 631 535 654 q 426 564 438 607 l 276 -1 l -118 -1 l 38 583 q 258 880 86 767 q 703 993 429 993 q 1065 916 943 993 q 1151 713 1186 839 q 1044 574 1129 632 q 842 511 960 515 l 836 494 q 1044 427 971 492 q 1092 264 1118 363 q 917 54 1056 129 q 564 -21 779 -21 z "},"à":{"ha":1082,"x_min":-96,"x_max":1053,"o":"m 558 768 l 335 768 l 96 979 l 457 979 l 558 768 m 186 -21 q -17 56 61 -21 q -96 251 -96 132 q 31 575 -96 435 q 339 715 158 715 q 547 644 464 715 q 618 463 631 574 l 639 463 l 651 694 l 1053 694 l 865 0 l 476 0 l 572 213 l 551 213 q 401 41 500 103 q 186 -21 303 -21 m 538 268 q 589 307 589 268 q 490 396 589 351 q 317 440 390 440 q 267 404 267 440 q 367 315 267 363 q 538 268 468 268 z "},"á":{"ha":1082,"x_min":-96,"x_max":1053,"o":"m 525 768 l 301 768 l 517 979 l 878 979 l 525 768 m 186 -21 q -17 56 61 -21 q -96 251 -96 132 q 31 575 -96 435 q 339 715 158 715 q 547 644 464 715 q 618 463 631 574 l 639 463 l 651 694 l 1053 694 l 865 0 l 476 0 l 572 213 l 551 213 q 401 41 500 103 q 186 -21 303 -21 m 538 268 q 589 307 589 268 q 490 396 589 351 q 317 440 390 440 q 267 404 267 440 q 367 315 267 363 q 538 268 468 268 z "},"â":{"ha":1082,"x_min":-96,"x_max":1053,"o":"m 340 767 l 56 767 l 315 978 l 651 978 l 797 767 l 515 767 l 451 856 l 340 767 m 186 -21 q -17 56 61 -21 q -96 251 -96 132 q 31 575 -96 435 q 339 715 158 715 q 547 644 464 715 q 618 463 631 574 l 639 463 l 651 694 l 1053 694 l 865 0 l 476 0 l 572 213 l 551 213 q 401 41 500 103 q 186 -21 303 -21 m 538 268 q 589 307 589 268 q 490 396 589 351 q 317 440 390 440 q 267 404 267 440 q 367 315 267 363 q 538 268 468 268 z "},"ã":{"ha":1082,"x_min":-96,"x_max":1053,"o":"m 271 788 l 126 817 q 220 964 156 911 q 364 1017 285 1017 q 492 979 422 1017 q 576 950 544 950 q 624 964 606 950 q 656 1019 642 978 l 800 994 q 564 793 738 793 q 426 833 504 793 q 347 860 375 860 q 271 788 297 860 m 186 -21 q -17 56 61 -21 q -96 251 -96 132 q 31 575 -96 435 q 339 715 158 715 q 547 644 464 715 q 618 463 631 574 l 639 463 l 651 694 l 1053 694 l 865 0 l 476 0 l 572 213 l 551 213 q 401 41 500 103 q 186 -21 303 -21 m 538 268 q 589 307 589 268 q 490 396 589 351 q 317 440 390 440 q 267 404 267 440 q 367 315 267 363 q 538 268 468 268 z "},"ä":{"ha":1082,"x_min":-96,"x_max":1053,"o":"m 366 799 q 340 781 366 799 q 244 764 314 764 q 141 799 175 764 q 122 893 107 835 q 192 988 140 954 q 314 1022 243 1022 q 417 988 383 1022 q 433 893 450 953 q 366 799 418 833 m 728 799 q 702 781 728 799 q 607 764 676 764 q 503 799 538 764 q 486 893 469 835 q 554 988 503 953 q 675 1022 606 1022 q 779 988 746 1022 q 794 893 813 953 q 728 799 779 833 m 186 -21 q -17 56 61 -21 q -96 251 -96 132 q 31 575 -96 435 q 339 715 158 715 q 547 644 464 715 q 618 463 631 574 l 639 463 l 651 694 l 1053 694 l 865 0 l 476 0 l 572 213 l 551 213 q 401 41 500 103 q 186 -21 303 -21 m 538 268 q 589 307 589 268 q 490 396 589 351 q 317 440 390 440 q 267 404 267 440 q 367 315 267 363 q 538 268 468 268 z "},"å":{"ha":1082,"x_min":-96,"x_max":1053,"o":"m 425 756 q 266 803 317 756 q 238 931 215 850 q 335 1060 260 1013 q 519 1108 411 1108 q 677 1060 626 1108 q 706 931 728 1013 q 608 803 683 850 q 425 756 532 756 m 454 868 q 536 931 518 868 q 530 975 543 958 q 488 992 517 992 q 436 975 458 992 q 407 931 414 958 q 413 885 400 903 q 454 868 426 868 m 186 -21 q -17 56 61 -21 q -96 251 -96 132 q 31 575 -96 435 q 339 715 158 715 q 547 644 464 715 q 618 463 631 574 l 639 463 l 651 694 l 1053 694 l 865 0 l 476 0 l 572 213 l 551 213 q 401 41 500 103 q 186 -21 303 -21 m 538 268 q 589 307 589 268 q 490 396 589 351 q 317 440 390 440 q 267 404 267 440 q 367 315 267 363 q 538 268 468 268 z "},"æ":{"ha":1599,"x_min":-142,"x_max":1525,"o":"m 197 -21 q -55 35 32 -21 q -114 194 -142 90 q 15 352 -86 296 q 269 408 117 408 q 430 378 372 408 q 490 301 488 347 l 514 301 l 518 318 q 463 410 533 371 q 278 449 392 449 q -8 392 139 449 l 63 660 q 447 715 258 715 q 685 675 596 715 q 779 553 774 635 l 796 553 q 947 674 846 632 q 1157 715 1047 715 q 1441 621 1357 715 q 1483 371 1525 526 q 1460 317 1475 339 l 882 317 q 910 288 878 301 q 997 266 943 274 q 1111 258 1051 258 q 1419 307 1292 258 l 1350 36 q 988 -21 1192 -21 q 613 165 672 -21 l 594 165 q 460 27 567 75 q 197 -21 353 -21 m 888 369 l 1167 369 q 1139 428 1171 407 q 1049 450 1107 450 q 888 369 935 450 m 369 206 q 503 243 492 206 q 478 272 508 261 q 390 282 449 282 q 258 243 269 282 q 283 215 253 225 q 369 206 313 206 z "},"ç":{"ha":885,"x_min":-90,"x_max":835,"o":"m 271 346 q 322 310 271 319 q 485 301 374 301 q 771 354 639 301 l 683 24 q 397 -18 576 -8 l 353 -72 q 464 -83 415 -54 q 494 -175 513 -111 q 408 -276 478 -240 q 247 -311 338 -311 q 64 -264 124 -311 l 121 -169 q 267 -210 182 -210 q 347 -172 339 -210 q 340 -149 351 -157 q 307 -142 328 -140 q 264 -154 286 -143 l 193 -103 l 254 -19 q 1 63 93 -8 q -90 250 -90 133 q -70 374 -90 311 q -3 498 -50 436 q 113 608 44 560 q 284 685 181 656 q 513 715 388 715 q 835 683 697 715 l 725 363 q 496 399 614 399 q 324 387 378 399 q 271 346 271 375 z "},"è":{"ha":974,"x_min":-96,"x_max":889,"o":"m 640 768 l 417 768 l 178 979 l 539 979 l 640 768 m 339 -21 q 15 58 125 -21 q -86 278 -96 136 q -44 435 -82 360 q 64 575 -6 511 q 246 677 133 639 q 499 715 358 715 q 790 638 692 715 q 879 431 889 561 q 846 317 876 358 l 250 317 q 272 288 246 301 q 350 266 299 274 q 467 258 401 258 q 803 307 663 258 l 732 36 q 339 -21 564 -21 m 267 369 l 554 369 q 524 428 558 407 q 432 450 490 450 q 267 369 311 450 z "},"é":{"ha":974,"x_min":-96,"x_max":960,"o":"m 607 768 l 383 768 l 599 979 l 960 979 l 607 768 m 339 -21 q 15 58 125 -21 q -86 278 -96 136 q -44 435 -82 360 q 64 575 -6 511 q 246 677 133 639 q 499 715 358 715 q 790 638 692 715 q 879 431 889 561 q 846 317 876 358 l 250 317 q 272 288 246 301 q 350 266 299 274 q 467 258 401 258 q 803 307 663 258 l 732 36 q 339 -21 564 -21 m 267 369 l 554 369 q 524 428 558 407 q 432 450 490 450 q 267 369 311 450 z "},"ê":{"ha":974,"x_min":-96,"x_max":889,"o":"m 422 767 l 138 767 l 397 978 l 733 978 l 879 767 l 597 767 l 533 856 l 422 767 m 339 -21 q 15 58 125 -21 q -86 278 -96 136 q -44 435 -82 360 q 64 575 -6 511 q 246 677 133 639 q 499 715 358 715 q 790 638 692 715 q 879 431 889 561 q 846 317 876 358 l 250 317 q 272 288 246 301 q 350 266 299 274 q 467 258 401 258 q 803 307 663 258 l 732 36 q 339 -21 564 -21 m 267 369 l 554 369 q 524 428 558 407 q 432 450 490 450 q 267 369 311 450 z "},"ë":{"ha":974,"x_min":-96,"x_max":894,"o":"m 448 799 q 422 781 448 799 q 326 764 396 764 q 223 799 257 764 q 204 893 189 835 q 274 988 222 954 q 396 1022 325 1022 q 499 988 465 1022 q 515 893 532 953 q 448 799 500 833 m 810 799 q 784 781 810 799 q 689 764 758 764 q 585 799 619 764 q 568 893 551 835 q 636 988 585 953 q 757 1022 688 1022 q 861 988 828 1022 q 876 893 894 953 q 810 799 861 833 m 339 -21 q 15 58 125 -21 q -86 278 -96 136 q -44 435 -82 360 q 64 575 -6 511 q 246 677 133 639 q 499 715 358 715 q 790 638 692 715 q 879 431 889 561 q 846 317 876 358 l 250 317 q 272 288 246 301 q 350 266 299 274 q 467 258 401 258 q 803 307 663 258 l 732 36 q 339 -21 564 -21 m 267 369 l 554 369 q 524 428 558 407 q 432 450 490 450 q 267 369 311 450 z "},"ì":{"ha":578,"x_min":-71,"x_max":508,"o":"m 436 768 l 213 768 l -26 979 l 335 979 l 436 768 m -39 0 l 60 371 l -71 371 l 17 694 l 508 694 l 322 0 l -39 0 z "},"í":{"ha":578,"x_min":-71,"x_max":756,"o":"m 403 768 l 179 768 l 394 979 l 756 979 l 403 768 m 508 694 l 322 0 l -39 0 l 60 371 l -71 371 l 17 694 l 508 694 z "},"î":{"ha":578,"x_min":-71,"x_max":675,"o":"m 218 767 l -67 767 l 193 978 l 529 978 l 675 767 l 393 767 l 329 856 l 218 767 m 17 694 l 508 694 l 322 0 l -39 0 l 60 371 l -71 371 l 17 694 z "},"ï":{"ha":578,"x_min":-71,"x_max":690,"o":"m 244 799 q 218 781 244 799 q 122 764 192 764 q 19 799 53 764 q 0 893 -15 835 q 69 988 18 954 q 192 1022 121 1022 q 294 988 261 1022 q 311 893 328 953 q 244 799 296 833 m 606 799 q 580 781 606 799 q 485 764 554 764 q 381 799 415 764 q 364 893 347 835 q 432 988 381 953 q 553 1022 483 1022 q 657 988 624 1022 q 672 893 690 953 q 606 799 657 833 m -71 371 l 17 694 l 508 694 l 322 0 l -39 0 l 60 371 l -71 371 z "},"ð":{"ha":1126,"x_min":-85,"x_max":1094,"o":"m 1008 1082 l 850 983 q 1040 783 985 907 q 1050 494 1094 658 q 797 117 986 256 q 356 -21 608 -21 q 168 1 253 -21 q 21 68 83 22 q -63 183 -42 114 q -62 349 -85 253 q 122 584 -19 506 q 475 663 263 663 q 674 592 603 663 l 689 601 q 631 697 681 653 q 507 767 582 742 l 374 683 l 335 749 l 400 789 q 203 769 297 800 l 285 1078 q 769 1021 561 1103 l 971 1147 l 1008 1082 m 685 456 q 648 517 694 494 q 518 540 601 540 q 377 519 435 540 q 308 456 319 497 q 340 388 297 413 q 472 363 382 363 q 612 387 550 363 q 685 456 674 411 z "},"ñ":{"ha":1022,"x_min":-156,"x_max":940,"o":"m 367 788 l 222 817 q 316 964 251 911 q 460 1017 381 1017 q 588 979 518 1017 q 672 950 642 950 q 719 964 701 950 q 751 1019 738 978 l 896 994 q 660 793 833 793 q 522 833 600 793 q 443 860 471 860 q 367 788 393 860 m 272 231 l 228 0 l -156 0 l 31 694 l 421 694 l 333 444 l 351 444 q 502 642 407 568 q 706 715 597 715 q 883 667 825 715 q 940 531 940 618 q 924 418 940 483 l 811 0 l 428 0 l 522 239 q 540 308 540 282 q 516 363 540 343 q 447 383 492 383 q 337 342 388 383 q 272 231 286 300 z "},"ò":{"ha":1019,"x_min":-92,"x_max":925,"o":"m 661 768 l 438 768 l 199 979 l 560 979 l 661 768 m 317 -21 q 16 50 124 -21 q -92 246 -92 121 q -6 488 -92 379 q 217 656 79 597 q 514 715 356 715 q 817 644 708 715 q 925 446 925 574 q 840 204 925 313 q 616 38 754 96 q 317 -21 478 -21 m 519 263 q 574 296 574 263 q 476 385 574 336 q 314 433 378 433 q 260 400 260 433 q 360 313 260 363 q 519 263 460 263 z "},"ó":{"ha":1019,"x_min":-92,"x_max":982,"o":"m 629 768 l 406 768 l 621 979 l 982 979 l 629 768 m 317 -21 q 16 50 124 -21 q -92 246 -92 121 q -6 488 -92 379 q 217 656 79 597 q 514 715 356 715 q 817 644 708 715 q 925 446 925 574 q 840 204 925 313 q 616 38 754 96 q 317 -21 478 -21 m 519 263 q 574 296 574 263 q 476 385 574 336 q 314 433 378 433 q 260 400 260 433 q 360 313 260 363 q 519 263 460 263 z "},"ô":{"ha":1019,"x_min":-92,"x_max":925,"o":"m 443 767 l 158 767 l 418 978 l 754 978 l 900 767 l 618 767 l 554 856 l 443 767 m 317 -21 q 16 50 124 -21 q -92 246 -92 121 q -6 488 -92 379 q 217 656 79 597 q 514 715 356 715 q 817 644 708 715 q 925 446 925 574 q 840 204 925 313 q 616 38 754 96 q 317 -21 478 -21 m 519 263 q 574 296 574 263 q 476 385 574 336 q 314 433 378 433 q 260 400 260 433 q 360 313 260 363 q 519 263 460 263 z "},"õ":{"ha":1019,"x_min":-92,"x_max":925,"o":"m 374 788 l 229 817 q 323 964 258 911 q 467 1017 388 1017 q 594 979 525 1017 q 679 950 649 950 q 726 964 708 950 q 758 1019 744 978 l 903 994 q 667 793 840 793 q 529 833 607 793 q 450 860 478 860 q 374 788 400 860 m 317 -21 q 16 50 124 -21 q -92 246 -92 121 q -6 488 -92 379 q 217 656 79 597 q 514 715 356 715 q 817 644 708 715 q 925 446 925 574 q 840 204 925 313 q 616 38 754 96 q 317 -21 478 -21 m 519 263 q 574 296 574 263 q 476 385 574 336 q 314 433 378 433 q 260 400 260 433 q 360 313 260 363 q 519 263 460 263 z "},"ö":{"ha":1019,"x_min":-92,"x_max":925,"o":"m 470 799 q 444 781 470 799 q 349 764 418 764 q 245 799 279 764 q 226 893 211 835 q 296 988 244 954 q 418 1022 347 1022 q 521 988 488 1022 q 538 893 554 953 q 470 799 522 833 m 832 799 q 806 781 832 799 q 711 764 781 764 q 608 799 642 764 q 590 893 574 835 q 658 988 607 953 q 779 1022 710 1022 q 883 988 850 1022 q 899 893 917 953 q 832 799 883 833 m 317 -21 q 16 50 124 -21 q -92 246 -92 121 q -6 488 -92 379 q 217 656 79 597 q 514 715 356 715 q 817 644 708 715 q 925 446 925 574 q 840 204 925 313 q 616 38 754 96 q 317 -21 478 -21 m 519 263 q 574 296 574 263 q 476 385 574 336 q 314 433 378 433 q 260 400 260 433 q 360 313 260 363 q 519 263 460 263 z "},"÷":{"ha":939,"x_min":-43,"x_max":868,"o":"m 450 626 q 328 669 368 628 q 308 782 288 710 q 389 896 326 854 q 533 938 451 938 q 656 896 615 938 q 679 782 697 854 q 596 668 660 710 q 450 626 532 626 m 815 385 l -43 385 l 10 581 l 868 581 l 815 385 m 434 68 q 402 47 434 68 q 289 26 371 26 q 167 68 207 26 q 146 182 126 110 q 228 296 165 254 q 374 338 292 338 q 497 295 456 336 q 517 182 538 254 q 434 68 497 110 z "},"ø":{"ha":1044,"x_min":-114,"x_max":972,"o":"m 932 703 l 846 631 q 922 346 972 531 q 717 77 876 175 q 329 -21 557 -21 q 114 11 203 -21 l -12 -96 l -75 -17 l 17 61 q -64 346 -114 160 q 140 617 -18 518 q 526 715 299 715 q 751 682 658 715 l 868 781 l 932 703 m 222 349 q 269 274 210 300 l 472 446 l 456 446 q 298 420 361 446 q 222 349 235 394 m 638 349 q 599 421 650 394 l 400 253 l 404 253 q 563 278 500 253 q 638 349 626 303 z "},"ù":{"ha":1022,"x_min":-106,"x_max":992,"o":"m 664 768 l 440 768 l 201 979 l 563 979 l 664 768 m 131 -21 q -47 28 11 -21 q -106 164 -106 76 q -87 276 -106 208 l 25 694 l 410 694 l 314 456 q 294 382 294 407 q 389 311 294 311 q 501 353 450 311 q 565 464 553 394 l 608 694 l 992 694 l 806 0 l 415 0 l 503 250 l 485 250 q 334 53 429 126 q 131 -21 239 -21 z "},"ú":{"ha":1022,"x_min":-106,"x_max":992,"o":"m 632 768 l 408 768 l 624 979 l 985 979 l 632 768 m 131 -21 q -47 28 11 -21 q -106 164 -106 76 q -87 276 -106 208 l 25 694 l 410 694 l 314 456 q 294 382 294 407 q 389 311 294 311 q 501 353 450 311 q 565 464 553 394 l 608 694 l 992 694 l 806 0 l 415 0 l 503 250 l 485 250 q 334 53 429 126 q 131 -21 239 -21 z "},"û":{"ha":1022,"x_min":-106,"x_max":992,"o":"m 446 767 l 161 767 l 421 978 l 757 978 l 903 767 l 621 767 l 557 856 l 446 767 m 131 -21 q -47 28 11 -21 q -106 164 -106 76 q -87 276 -106 208 l 25 694 l 410 694 l 314 456 q 294 382 294 407 q 389 311 294 311 q 501 353 450 311 q 565 464 553 394 l 608 694 l 992 694 l 806 0 l 415 0 l 503 250 l 485 250 q 334 53 429 126 q 131 -21 239 -21 z "},"ü":{"ha":1022,"x_min":-106,"x_max":992,"o":"m 473 799 q 447 781 473 799 q 351 764 421 764 q 248 799 282 764 q 229 893 214 835 q 299 988 247 954 q 421 1022 350 1022 q 524 988 490 1022 q 540 893 557 953 q 473 799 525 833 m 835 799 q 809 781 835 799 q 714 764 783 764 q 610 799 644 764 q 593 893 576 835 q 661 988 610 953 q 782 1022 713 1022 q 886 988 853 1022 q 901 893 919 953 q 835 799 886 833 m 131 -21 q -47 28 11 -21 q -106 164 -106 76 q -87 276 -106 208 l 25 694 l 410 694 l 314 456 q 294 382 294 407 q 389 311 294 311 q 501 353 450 311 q 565 464 553 394 l 608 694 l 992 694 l 806 0 l 415 0 l 503 250 l 485 250 q 334 53 429 126 q 131 -21 239 -21 z "},"ý":{"ha":1022,"x_min":-129,"x_max":992,"o":"m 638 768 l 414 768 l 629 979 l 990 979 l 638 768 m 100 -299 q -129 -281 43 -299 l -69 11 q 168 -19 31 -19 q 356 31 269 -19 q 475 174 443 81 l 503 250 l 485 250 q 353 72 429 128 q 165 15 276 15 q -29 65 38 15 q -96 204 -96 115 q -81 301 -96 243 l 25 694 l 410 694 l 313 456 q 294 382 294 411 q 389 311 294 311 q 503 353 451 311 q 565 464 556 394 l 599 694 l 992 694 l 838 132 q 760 -41 811 33 q 624 -176 710 -115 q 407 -267 539 -236 q 100 -299 275 -299 z "},"þ":{"ha":1126,"x_min":-200,"x_max":1047,"o":"m 206 -278 l -200 -278 l 136 972 l 576 972 l 356 482 l 375 482 q 534 653 425 590 q 763 715 643 715 q 981 613 915 715 q 1003 347 1047 511 q 838 81 958 183 q 565 -21 718 -21 q 369 47 443 -21 q 308 232 296 114 l 289 232 l 206 -278 m 486 303 q 667 350 656 303 q 634 386 672 375 q 513 397 596 397 q 325 350 336 397 q 332 328 322 338 q 363 314 342 319 q 415 306 383 308 q 486 303 446 303 z "},"ÿ":{"ha":1022,"x_min":-129,"x_max":992,"o":"m 478 799 q 452 781 478 799 q 357 764 426 764 q 253 799 288 764 q 235 893 219 835 q 304 988 253 954 q 426 1022 356 1022 q 529 988 496 1022 q 546 893 563 953 q 478 799 531 833 m 840 799 q 815 781 840 799 q 719 764 789 764 q 616 799 650 764 q 599 893 582 835 q 667 988 615 953 q 788 1022 718 1022 q 892 988 858 1022 q 907 893 925 953 q 840 799 892 833 m 100 -299 q -129 -281 43 -299 l -69 11 q 168 -19 31 -19 q 356 31 269 -19 q 475 174 443 81 l 503 250 l 485 250 q 353 72 429 128 q 165 15 276 15 q -29 65 38 15 q -96 204 -96 115 q -81 301 -96 243 l 25 694 l 410 694 l 313 456 q 294 382 294 411 q 389 311 294 311 q 503 353 451 311 q 565 464 556 394 l 599 694 l 992 694 l 838 132 q 760 -41 811 33 q 624 -176 710 -115 q 407 -267 539 -236 q 100 -299 275 -299 z "},"Ā":{"ha":1350,"x_min":-203,"x_max":1181,"o":"m 1092 1050 l 451 1050 l 501 1239 l 1142 1239 l 1092 1050 m 519 972 l 982 972 l 1181 0 l 628 0 l 642 192 l 440 192 l 351 0 l -203 0 l 519 972 m 639 310 l 658 583 l 633 583 l 504 310 l 639 310 z "},"ā":{"ha":1078,"x_min":-96,"x_max":1053,"o":"m 768 772 l 128 772 l 178 961 l 818 961 l 768 772 m 186 -21 q -17 56 61 -21 q -96 251 -96 132 q 31 575 -96 435 q 339 715 158 715 q 547 644 464 715 q 618 463 631 574 l 639 463 l 651 694 l 1053 694 l 865 0 l 476 0 l 572 213 l 551 213 q 401 41 500 103 q 186 -21 303 -21 m 538 268 q 589 307 589 268 q 490 396 589 351 q 317 440 390 440 q 267 404 267 440 q 367 315 267 363 q 538 268 468 268 z "},"Ă":{"ha":1350,"x_min":-203,"x_max":1181,"o":"m 988 1107 q 938 1073 988 1107 q 768 1039 888 1039 q 586 1107 649 1039 q 550 1272 524 1175 l 732 1272 q 745 1214 722 1238 q 810 1190 768 1190 q 888 1214 853 1190 q 933 1272 922 1238 l 1114 1272 q 988 1107 1088 1175 m 642 192 l 440 192 l 351 0 l -203 0 l 519 972 l 982 972 l 1181 0 l 628 0 l 642 192 m 639 310 l 658 583 l 633 583 l 504 310 l 639 310 z "},"ă":{"ha":1082,"x_min":-96,"x_max":1053,"o":"m 643 829 q 593 795 643 829 q 424 761 543 761 q 242 829 304 761 q 206 994 179 897 l 388 994 q 401 936 378 960 q 465 913 424 913 q 543 936 508 913 q 589 994 578 960 l 769 994 q 643 829 743 897 m 186 -21 q -17 56 61 -21 q -96 251 -96 132 q 31 575 -96 435 q 339 715 158 715 q 547 644 464 715 q 618 463 631 574 l 639 463 l 651 694 l 1053 694 l 865 0 l 476 0 l 572 213 l 551 213 q 401 41 500 103 q 186 -21 303 -21 m 538 268 q 589 307 589 268 q 490 396 589 351 q 317 440 390 440 q 267 404 267 440 q 367 315 267 363 q 538 268 468 268 z "},"Ą":{"ha":1350,"x_min":-203,"x_max":1181,"o":"m 901 -144 q 912 -199 893 -178 q 974 -219 931 -219 q 1000 -217 986 -219 q 1026 -211 1014 -215 q 1046 -203 1038 -207 q 1061 -197 1054 -200 l 1068 -194 l 1064 -311 q 967 -341 1032 -328 q 851 -354 903 -354 q 700 -310 753 -354 q 672 -178 647 -267 q 724 -87 683 -135 q 822 0 764 -39 l 628 0 l 642 192 l 440 192 l 351 0 l -203 0 l 519 972 l 982 972 l 1181 0 l 1058 0 q 958 -65 1004 -26 q 901 -144 913 -103 m 504 310 l 639 310 l 658 583 l 633 583 l 504 310 z "},"ą":{"ha":1078,"x_min":-96,"x_max":1053,"o":"m 865 0 l 800 0 q 664 -133 682 -64 q 674 -188 656 -167 q 736 -210 693 -210 q 763 -207 749 -210 q 788 -201 776 -204 q 808 -194 799 -197 q 822 -186 817 -190 l 829 -183 l 826 -300 q 731 -331 796 -318 q 614 -343 665 -343 q 463 -299 515 -343 q 433 -167 410 -256 q 568 0 456 -81 l 476 0 l 572 213 l 551 213 q 401 41 500 103 q 186 -21 303 -21 q -17 56 61 -21 q -96 251 -96 132 q 31 575 -96 435 q 339 715 158 715 q 547 644 464 715 q 618 463 631 574 l 639 463 l 651 694 l 1053 694 l 865 0 m 538 268 q 589 307 589 268 q 490 396 589 351 q 317 440 390 440 q 267 404 267 440 q 367 315 267 363 q 538 268 468 268 z "},"Ć":{"ha":1249,"x_min":-53,"x_max":1256,"o":"m 818 1046 l 594 1046 l 810 1257 l 1171 1257 l 818 1046 m 542 -21 q 103 66 260 -21 q -53 335 -53 153 q -24 522 -53 431 q 71 700 4 614 q 235 851 138 786 q 483 954 333 915 q 815 993 632 993 q 1256 936 1054 993 l 1113 503 q 947 562 1054 538 q 731 586 840 586 q 453 560 547 586 q 360 472 360 535 q 449 404 360 422 q 714 386 538 386 q 950 411 832 386 q 1149 472 1068 436 l 1032 31 q 542 -21 813 -21 z "},"ć":{"ha":885,"x_min":-90,"x_max":939,"o":"m 586 768 l 363 768 l 578 979 l 939 979 l 586 768 m 313 -21 q 18 51 126 -21 q -90 250 -90 122 q -70 374 -90 311 q -3 498 -50 436 q 113 608 44 560 q 284 685 181 656 q 513 715 388 715 q 835 683 697 715 l 725 363 q 496 399 614 399 q 324 387 378 399 q 271 346 271 375 q 322 310 271 319 q 485 301 374 301 q 771 354 639 301 l 683 24 q 313 -21 531 -21 z "},"Ċ":{"ha":1249,"x_min":-53,"x_max":1256,"o":"m 719 1043 q 615 1078 649 1043 q 599 1172 582 1114 q 666 1267 614 1232 q 788 1301 718 1301 q 890 1267 857 1301 q 908 1172 924 1232 q 840 1078 892 1113 q 719 1043 788 1043 m 542 -21 q 103 66 260 -21 q -53 335 -53 153 q -24 522 -53 431 q 71 700 4 614 q 235 851 138 786 q 483 954 333 915 q 815 993 632 993 q 1256 936 1054 993 l 1113 503 q 947 562 1054 538 q 731 586 840 586 q 453 560 547 586 q 360 472 360 535 q 449 404 360 422 q 714 386 538 386 q 950 411 832 386 q 1149 472 1068 436 l 1032 31 q 542 -21 813 -21 z "},"ċ":{"ha":885,"x_min":-90,"x_max":835,"o":"m 488 765 q 383 801 417 765 q 367 894 350 836 q 434 989 382 954 q 556 1024 486 1024 q 658 989 625 1024 q 676 894 692 954 q 608 800 660 835 q 488 765 556 765 m 313 -21 q 18 51 126 -21 q -90 250 -90 122 q -70 374 -90 311 q -3 498 -50 436 q 113 608 44 560 q 284 685 181 656 q 513 715 388 715 q 835 683 697 715 l 725 363 q 496 399 614 399 q 324 387 378 399 q 271 346 271 375 q 322 310 271 319 q 485 301 374 301 q 771 354 639 301 l 683 24 q 313 -21 531 -21 z "},"Č":{"ha":1249,"x_min":-53,"x_max":1256,"o":"m 888 1044 l 551 1044 l 406 1256 l 690 1256 l 754 1168 l 865 1256 l 1147 1256 l 888 1044 m 542 -21 q 103 66 260 -21 q -53 335 -53 153 q -24 522 -53 431 q 71 700 4 614 q 235 851 138 786 q 483 954 333 915 q 815 993 632 993 q 1256 936 1054 993 l 1113 503 q 947 562 1054 538 q 731 586 840 586 q 453 560 547 586 q 360 472 360 535 q 449 404 360 422 q 714 386 538 386 q 950 411 832 386 q 1149 472 1068 436 l 1032 31 q 542 -21 813 -21 z "},"č":{"ha":885,"x_min":-90,"x_max":914,"o":"m 654 767 l 318 767 l 172 978 l 457 978 l 521 890 l 632 978 l 914 978 l 654 767 m 313 -21 q 18 51 126 -21 q -90 250 -90 122 q -70 374 -90 311 q -3 498 -50 436 q 113 608 44 560 q 284 685 181 656 q 513 715 388 715 q 835 683 697 715 l 725 363 q 496 399 614 399 q 324 387 378 399 q 271 346 271 375 q 322 310 271 319 q 485 301 374 301 q 771 354 639 301 l 683 24 q 313 -21 531 -21 z "},"Ď":{"ha":1281,"x_min":-147,"x_max":1219,"o":"m 867 1044 l 531 1044 l 385 1256 l 669 1256 l 733 1168 l 844 1256 l 1126 1256 l 867 1044 m 431 0 l -147 0 l 114 972 l 692 972 q 1081 882 942 972 q 1219 625 1219 792 q 1192 457 1219 542 q 1104 290 1165 372 q 954 143 1043 207 q 730 40 865 79 q 431 0 594 0 m 622 574 l 401 574 l 356 400 l 576 400 q 739 426 678 400 q 800 501 800 453 q 622 574 800 574 z "},"ď":{"ha":1426,"x_min":-96,"x_max":1508,"o":"m 1221 719 l 1164 815 q 1243 858 1201 831 q 1297 906 1285 885 q 1258 899 1276 899 q 1171 938 1200 899 q 1160 1042 1142 976 q 1234 1147 1178 1108 q 1364 1186 1290 1186 q 1474 1140 1439 1186 q 1488 1015 1508 1094 q 1385 835 1461 915 q 1221 719 1308 754 m 186 -21 q -17 56 61 -21 q -96 251 -96 132 q 31 577 -96 439 q 339 715 158 715 q 547 644 464 715 q 618 463 631 574 l 639 463 l 722 972 l 1126 972 l 865 0 l 476 0 l 572 213 l 551 213 q 401 41 500 103 q 186 -21 303 -21 m 538 268 q 589 307 589 268 q 488 394 589 349 q 317 440 388 440 q 267 404 267 440 q 367 315 267 363 q 538 268 468 268 z "},"Đ":{"ha":1383,"x_min":-68,"x_max":1365,"o":"m 532 0 l -44 0 l 75 447 l -68 447 l -46 529 l 97 529 l 217 972 l 793 972 q 1228 845 1092 972 q 1303 486 1365 718 q 1035 128 1240 256 q 532 0 829 0 m 471 447 l 458 400 l 678 400 q 901 486 878 400 q 865 551 911 529 q 725 574 819 574 l 504 574 l 493 529 l 707 529 l 685 447 l 471 447 z "},"đ":{"ha":1151,"x_min":-107,"x_max":1190,"o":"m 178 -21 q -40 81 26 -21 q -62 347 -107 183 q 103 613 -18 511 q 375 715 224 715 q 572 648 497 715 q 632 463 646 581 l 653 463 l 693 735 l 539 735 l 565 835 l 710 835 l 736 972 l 1140 972 l 1104 835 l 1190 835 l 1164 735 l 1078 735 l 879 0 l 490 0 l 586 213 l 565 213 q 406 42 515 104 q 178 -21 297 -21 m 428 297 q 615 344 603 297 q 454 392 629 392 q 274 344 286 392 q 428 297 261 297 z "},"Ē":{"ha":1174,"x_min":-147,"x_max":1182,"o":"m 986 1050 l 346 1050 l 396 1239 l 1036 1239 l 986 1050 m 404 606 l 388 540 l 904 554 l 869 426 l 360 440 l 340 369 l 1067 406 l 958 0 l -147 0 l 114 972 l 1182 972 l 1079 592 l 404 606 z "},"ē":{"ha":974,"x_min":-96,"x_max":889,"o":"m 829 772 l 189 772 l 239 961 l 879 961 l 829 772 m 339 -21 q 15 58 125 -21 q -86 278 -96 136 q -44 435 -82 360 q 64 575 -6 511 q 246 677 133 639 q 499 715 358 715 q 790 638 692 715 q 879 431 889 561 q 846 317 876 358 l 250 317 q 272 288 246 301 q 350 266 299 274 q 467 258 401 258 q 803 307 663 258 l 732 36 q 339 -21 564 -21 m 267 369 l 554 369 q 524 428 558 407 q 432 450 490 450 q 267 369 311 450 z "},"Ė":{"ha":1174,"x_min":-147,"x_max":1182,"o":"m 665 1043 q 561 1078 594 1043 q 544 1172 528 1114 q 612 1267 560 1232 q 733 1301 664 1301 q 836 1267 803 1301 q 854 1172 869 1232 q 785 1078 838 1113 q 665 1043 733 1043 m 904 554 l 869 426 l 360 440 l 340 369 l 1067 406 l 958 0 l -147 0 l 114 972 l 1182 972 l 1079 592 l 404 606 l 388 540 l 904 554 z "},"ė":{"ha":974,"x_min":-96,"x_max":889,"o":"m 508 765 q 404 801 438 765 q 388 894 371 836 q 455 989 403 954 q 576 1024 507 1024 q 679 989 646 1024 q 697 894 713 954 q 628 800 681 835 q 508 765 576 765 m 339 -21 q 15 58 125 -21 q -86 278 -96 136 q -44 435 -82 360 q 64 575 -6 511 q 246 677 133 639 q 499 715 358 715 q 790 638 692 715 q 879 431 889 561 q 846 317 876 358 l 250 317 q 272 288 246 301 q 350 266 299 274 q 467 258 401 258 q 803 307 663 258 l 732 36 q 339 -21 564 -21 m 267 369 l 554 369 q 524 428 558 407 q 432 450 490 450 q 267 369 311 450 z "},"Ę":{"ha":1174,"x_min":-147,"x_max":1182,"o":"m 1182 972 l 1079 592 l 404 606 l 388 540 l 904 554 l 869 426 l 360 440 l 340 369 l 1067 406 l 958 0 q 856 -65 904 -25 q 796 -147 807 -104 q 806 -201 788 -181 q 868 -222 825 -222 q 894 -219 881 -222 q 920 -213 908 -217 q 941 -206 932 -210 q 956 -200 950 -203 l 963 -196 l 958 -312 q 862 -344 926 -331 q 746 -357 797 -357 q 594 -313 647 -357 q 567 -181 542 -269 q 619 -87 578 -137 q 721 0 661 -37 l -147 0 l 114 972 l 1182 972 z "},"ę":{"ha":974,"x_min":-94,"x_max":889,"o":"m 499 715 q 790 638 692 715 q 879 431 889 561 q 846 317 876 358 l 250 317 q 272 288 246 301 q 350 266 299 274 q 467 258 401 258 q 803 307 663 258 l 732 36 q 475 -14 626 1 q 347 -144 365 -75 q 358 -198 339 -176 q 419 -219 376 -219 q 446 -217 432 -219 q 471 -211 460 -215 q 490 -203 482 -207 q 506 -197 499 -200 l 513 -194 l 510 -311 q 413 -342 478 -329 q 297 -354 349 -354 q 144 -310 197 -354 q 117 -178 92 -267 q 244 -17 139 -93 q -10 76 75 0 q -86 278 -94 153 q -44 435 -82 360 q 64 575 -6 511 q 246 677 133 639 q 499 715 358 715 m 267 369 l 554 369 q 524 428 558 407 q 432 450 490 450 q 267 369 311 450 z "},"Ě":{"ha":1174,"x_min":-147,"x_max":1182,"o":"m 832 1044 l 496 1044 l 350 1256 l 635 1256 l 699 1168 l 810 1256 l 1092 1256 l 832 1044 m 340 369 l 1067 406 l 958 0 l -147 0 l 114 972 l 1182 972 l 1079 592 l 404 606 l 388 540 l 904 554 l 869 426 l 360 440 l 340 369 z "},"ě":{"ha":974,"x_min":-96,"x_max":935,"o":"m 675 767 l 339 767 l 193 978 l 478 978 l 542 890 l 653 978 l 935 978 l 675 767 m 339 -21 q 15 58 125 -21 q -86 278 -96 136 q -44 435 -82 360 q 64 575 -6 511 q 246 677 133 639 q 499 715 358 715 q 790 638 692 715 q 879 431 889 561 q 846 317 876 358 l 250 317 q 272 288 246 301 q 350 266 299 274 q 467 258 401 258 q 803 307 663 258 l 732 36 q 339 -21 564 -21 m 267 369 l 554 369 q 524 428 558 407 q 432 450 490 450 q 267 369 311 450 z "},"Ğ":{"ha":1414,"x_min":-56,"x_max":1376,"o":"m 1028 1107 q 978 1073 1028 1107 q 808 1039 928 1039 q 626 1107 689 1039 q 590 1272 564 1175 l 772 1272 q 785 1214 763 1238 q 850 1190 808 1190 q 928 1214 893 1190 q 974 1272 963 1238 l 1154 1272 q 1028 1107 1128 1175 m 375 -21 q 56 66 168 -21 q -56 315 -56 153 q 176 799 -56 606 q 790 993 408 993 q 1247 956 1046 993 l 1107 583 q 708 615 922 615 q 448 576 543 615 q 353 463 353 536 q 581 364 353 364 q 724 382 665 364 q 789 425 782 400 l 496 429 l 532 565 l 1376 565 l 1332 404 l 1257 404 l 1154 0 l 757 0 l 946 396 l 917 396 q 691 74 822 168 q 375 -21 560 -21 z "},"ğ":{"ha":1082,"x_min":-92,"x_max":1053,"o":"m 783 829 q 733 795 783 829 q 564 761 683 761 q 382 829 444 761 q 346 994 319 897 l 528 994 q 541 936 518 960 q 606 913 564 913 q 683 936 649 913 q 729 994 718 960 l 910 994 q 783 829 883 897 m 164 -299 q -65 -281 107 -299 l -6 11 q 232 -19 94 -19 q 422 29 331 -19 q 550 161 513 78 l 572 213 l 551 213 q 203 13 456 13 q -11 78 69 13 q -92 261 -92 143 q 26 576 -92 436 q 317 715 144 715 q 540 644 449 715 q 618 463 631 574 l 639 463 l 651 694 l 1053 694 l 901 132 q 676 -185 849 -72 q 164 -299 503 -299 m 538 268 q 589 307 589 268 q 488 394 589 349 q 317 440 388 440 q 267 404 267 440 q 367 315 267 363 q 538 268 468 268 z "},"Ġ":{"ha":1414,"x_min":-56,"x_max":1376,"o":"m 811 1043 q 707 1078 740 1043 q 690 1172 674 1114 q 758 1267 706 1232 q 879 1301 810 1301 q 982 1267 949 1301 q 1000 1172 1015 1232 q 931 1078 983 1113 q 811 1043 879 1043 m 375 -21 q 56 66 168 -21 q -56 315 -56 153 q 176 799 -56 606 q 790 993 408 993 q 1247 956 1046 993 l 1107 583 q 708 615 922 615 q 448 576 543 615 q 353 463 353 536 q 581 364 353 364 q 724 382 665 364 q 789 425 782 400 l 496 429 l 532 565 l 1376 565 l 1332 404 l 1257 404 l 1154 0 l 757 0 l 946 396 l 917 396 q 691 74 822 168 q 375 -21 560 -21 z "},"ġ":{"ha":1082,"x_min":-92,"x_max":1053,"o":"m 567 765 q 463 801 496 765 q 446 894 429 836 q 513 989 461 954 q 635 1024 565 1024 q 738 989 704 1024 q 756 894 771 954 q 687 800 739 835 q 567 765 635 765 m 164 -299 q -65 -281 107 -299 l -6 11 q 232 -19 94 -19 q 422 29 331 -19 q 550 161 513 78 l 572 213 l 551 213 q 203 13 456 13 q -11 78 69 13 q -92 261 -92 143 q 26 576 -92 436 q 317 715 144 715 q 540 644 449 715 q 618 463 631 574 l 639 463 l 651 694 l 1053 694 l 901 132 q 676 -185 849 -72 q 164 -299 503 -299 m 538 268 q 589 307 589 268 q 488 394 589 349 q 317 440 388 440 q 267 404 267 440 q 367 315 267 363 q 538 268 468 268 z "},"Ģ":{"ha":1414,"x_min":-56,"x_max":1376,"o":"m 375 -21 q 56 66 168 -21 q -56 315 -56 153 q 176 799 -56 606 q 790 993 408 993 q 1247 956 1046 993 l 1107 583 q 708 615 922 615 q 448 576 543 615 q 353 463 353 536 q 581 364 353 364 q 724 382 665 364 q 789 425 782 400 l 496 429 l 532 565 l 1376 565 l 1332 404 l 1257 404 l 1154 0 l 757 0 l 946 396 l 917 396 q 691 74 822 168 q 375 -21 560 -21 m 197 -597 l 133 -487 q 223 -439 176 -469 q 282 -386 269 -408 q 240 -393 258 -393 q 139 -349 174 -393 q 125 -231 104 -304 q 210 -110 146 -154 q 360 -65 275 -65 q 487 -117 447 -65 q 501 -260 526 -169 q 383 -466 471 -374 q 197 -597 296 -558 z "},"ģ":{"ha":1082,"x_min":-92,"x_max":1053,"o":"m 565 758 q 438 810 478 758 q 424 953 399 863 q 542 1158 454 1067 q 728 1289 629 1250 l 792 1179 q 703 1131 749 1161 q 643 1079 657 1101 q 685 1085 674 1085 q 786 1040 751 1085 q 801 924 821 996 q 715 803 781 847 q 565 758 650 758 m 164 -299 q -65 -281 107 -299 l -6 11 q 232 -19 94 -19 q 422 29 331 -19 q 550 161 513 78 l 572 213 l 551 213 q 203 13 456 13 q -11 78 69 13 q -92 261 -92 143 q 26 576 -92 436 q 317 715 144 715 q 540 644 449 715 q 618 463 631 574 l 639 463 l 651 694 l 1053 694 l 901 132 q 676 -185 849 -72 q 164 -299 503 -299 m 538 268 q 589 307 589 268 q 488 394 589 349 q 317 440 388 440 q 267 404 267 440 q 367 315 267 363 q 538 268 468 268 z "},"Ħ":{"ha":1428,"x_min":-78,"x_max":1464,"o":"m 356 0 l -78 0 l 118 733 l 11 733 l 36 832 l 144 832 l 183 972 l 617 972 l 563 832 l 938 832 l 960 972 l 1393 972 l 1356 832 l 1464 832 l 1438 733 l 1329 733 l 1132 0 l 699 0 l 836 371 l 417 371 l 356 0 m 526 733 l 482 615 l 903 615 l 922 733 l 526 733 z "},"ħ":{"ha":1089,"x_min":-99,"x_max":1007,"o":"m 754 715 q 956 636 906 715 q 969 418 1007 557 l 857 0 l 472 0 l 564 231 q 575 339 593 294 q 494 383 557 383 q 383 340 433 383 q 318 231 332 297 l 274 0 l -99 0 l 99 735 l 13 735 l 39 835 l 125 835 l 163 972 l 567 972 l 518 835 l 664 835 l 638 735 l 482 735 l 379 444 l 397 444 q 549 642 454 568 q 754 715 643 715 z "},"Ī":{"ha":1088,"x_min":-158,"x_max":1135,"o":"m 939 1050 l 299 1050 l 349 1239 l 989 1239 l 939 1050 m 103 972 l 1135 972 l 1024 558 l 697 583 l 647 390 l 985 414 l 874 0 l -158 0 l -47 414 l 279 390 l 332 583 l -8 558 l 103 972 z "},"ī":{"ha":578,"x_min":-71,"x_max":675,"o":"m 625 772 l -15 772 l 35 961 l 675 961 l 625 772 m 322 0 l -39 0 l 60 371 l -71 371 l 17 694 l 508 694 l 322 0 z "},"Į":{"ha":1088,"x_min":-158,"x_max":1135,"o":"m 1135 972 l 1024 558 l 697 583 l 647 390 l 985 414 l 874 0 l 435 0 q 335 -64 382 -24 q 276 -146 288 -104 q 287 -199 268 -178 q 349 -221 306 -221 q 375 -218 361 -221 q 400 -212 389 -215 q 420 -205 411 -208 q 436 -197 429 -201 l 442 -194 l 439 -311 q 342 -342 407 -329 q 226 -356 276 -356 q 74 -312 126 -356 q 46 -179 21 -268 q 99 -87 57 -136 q 199 0 140 -37 l -158 0 l -47 414 l 279 390 l 332 583 l -8 558 l 103 972 l 1135 972 z "},"į":{"ha":578,"x_min":-149,"x_max":508,"o":"m 304 765 q 200 801 233 765 q 183 894 167 836 q 251 989 199 954 q 372 1024 303 1024 q 475 989 442 1024 q 493 894 508 954 q 424 800 476 835 q 304 765 372 765 m 322 0 l 265 0 q 164 -63 211 -24 q 106 -144 117 -103 q 116 -199 97 -178 q 178 -221 135 -221 q 204 -218 190 -221 q 229 -212 218 -215 q 249 -205 240 -208 q 264 -197 258 -201 l 271 -194 l 268 -311 q 172 -342 238 -329 q 56 -354 107 -354 q -96 -310 -43 -354 q -125 -178 -149 -267 q -72 -87 -114 -136 q 26 0 -31 -37 l -39 0 l 60 371 l -71 371 l 17 694 l 508 694 l 322 0 z "},"İ":{"ha":1088,"x_min":-158,"x_max":1135,"o":"m 618 1043 q 514 1078 547 1043 q 497 1172 481 1114 q 565 1267 513 1232 q 686 1301 617 1301 q 789 1267 756 1301 q 807 1172 822 1232 q 738 1078 790 1113 q 618 1043 686 1043 m 1024 558 l 697 583 l 647 390 l 985 414 l 874 0 l -158 0 l -47 414 l 279 390 l 332 583 l -8 558 l 103 972 l 1135 972 l 1024 558 z "},"ı":{"ha":578,"x_min":-71,"x_max":508,"o":"m 508 694 l 322 0 l -39 0 l 60 371 l -71 371 l 17 694 l 508 694 z "},"Ķ":{"ha":1240,"x_min":-147,"x_max":1299,"o":"m 322 224 l 303 0 l -147 0 l 114 972 l 544 972 l 372 499 l 394 499 l 649 972 l 1299 972 l 513 513 l 524 489 q 786 596 665 596 q 1063 430 1000 596 q 1019 0 1126 264 l 532 0 q 618 213 593 118 q 619 372 643 308 q 514 435 596 435 q 379 373 431 435 q 322 224 328 311 m 217 -597 l 153 -487 q 242 -439 196 -469 q 301 -386 289 -408 q 260 -393 278 -393 q 158 -349 193 -393 q 144 -231 124 -304 q 230 -110 165 -154 q 379 -65 294 -65 q 506 -117 467 -65 q 521 -260 546 -169 q 403 -466 490 -374 q 217 -597 315 -558 z "},"ķ":{"ha":1056,"x_min":-156,"x_max":1042,"o":"m 254 158 l 236 0 l -156 0 l 106 972 l 508 972 l 282 365 l 296 365 l 486 694 l 1042 694 l 394 368 l 400 353 q 622 429 510 429 q 856 311 800 429 q 867 0 913 193 l 458 0 q 492 109 481 57 q 502 210 503 161 q 475 287 501 258 q 397 314 449 315 q 300 269 339 313 q 254 158 261 226 m 168 -597 l 104 -487 q 194 -439 147 -469 q 253 -386 240 -408 q 211 -393 229 -393 q 110 -349 144 -393 q 96 -231 75 -304 q 181 -110 117 -154 q 331 -65 246 -65 q 458 -117 418 -65 q 472 -260 497 -169 q 354 -466 442 -374 q 168 -597 267 -558 z "},"Ĺ":{"ha":1118,"x_min":-147,"x_max":1024,"o":"m 440 1046 l 217 1046 l 432 1257 l 793 1257 l 440 1046 m 1024 438 l 907 0 l -147 0 l 114 972 l 538 972 l 349 413 l 1024 438 z "},"ĺ":{"ha":564,"x_min":-156,"x_max":781,"o":"m 428 1046 l 204 1046 l 419 1257 l 781 1257 l 428 1046 m 457 324 l 369 0 l -156 0 l 106 972 l 508 972 l 283 324 l 457 324 z "},"Ļ":{"ha":1118,"x_min":-147,"x_max":1024,"o":"m 349 413 l 1024 438 l 907 0 l -147 0 l 114 972 l 538 972 l 349 413 m 179 -597 l 115 -487 q 205 -439 158 -469 q 264 -386 251 -408 q 222 -393 240 -393 q 121 -349 156 -393 q 107 -231 86 -304 q 192 -110 128 -154 q 342 -65 257 -65 q 469 -117 429 -65 q 483 -260 508 -169 q 365 -466 453 -374 q 179 -597 278 -558 z "},"ļ":{"ha":564,"x_min":-167,"x_max":508,"o":"m 283 324 l 457 324 l 369 0 l -156 0 l 106 972 l 508 972 l 283 324 m -74 -597 l -137 -487 q -48 -439 -94 -469 q 11 -386 -1 -408 q -31 -393 -12 -393 q -132 -349 -97 -393 q -146 -231 -167 -304 q -60 -110 -125 -154 q 89 -65 4 -65 q 216 -117 176 -65 q 231 -260 256 -169 q 113 -466 200 -374 q -74 -597 25 -558 z "},"Ľ":{"ha":1104,"x_min":-147,"x_max":1079,"o":"m 790 572 l 733 668 q 813 710 772 683 q 867 758 854 738 q 829 751 846 751 q 741 791 771 751 q 729 894 711 831 q 804 1000 747 961 q 935 1039 861 1039 q 1044 993 1010 1039 q 1058 868 1079 947 q 954 688 1032 768 q 790 572 876 607 m 1024 438 l 907 0 l -147 0 l 114 972 l 538 972 l 349 413 l 1024 438 z "},"ľ":{"ha":861,"x_min":-156,"x_max":958,"o":"m 671 761 l 614 857 q 694 901 653 874 q 747 949 735 928 q 708 942 726 942 q 621 981 650 942 q 608 1083 592 1019 q 683 1190 626 1151 q 814 1229 740 1229 q 924 1183 889 1229 q 938 1058 958 1138 q 835 878 911 958 q 671 761 758 797 m 457 324 l 369 0 l -156 0 l 106 972 l 508 972 l 283 324 l 457 324 z "},"Ł":{"ha":1178,"x_min":-94,"x_max":1078,"o":"m 967 0 l -87 0 l 13 375 l -82 340 l -94 429 l 40 481 l 174 972 l 575 972 l 475 640 l 619 696 l 632 607 l 446 535 l 401 392 l 1078 417 l 967 0 z "},"ł":{"ha":629,"x_min":-96,"x_max":613,"o":"m 444 0 l -82 0 l 19 378 l -83 340 l -96 429 l 49 483 l 179 972 l 583 972 l 467 638 l 601 688 l 613 599 l 431 531 l 358 324 l 531 324 l 444 0 z "},"Ń":{"ha":1321,"x_min":-147,"x_max":1357,"o":"m 854 1046 l 631 1046 l 846 1257 l 1207 1257 l 854 1046 m 364 492 l 343 0 l -147 0 l 114 972 l 476 972 l 838 536 l 864 544 l 888 972 l 1357 972 l 1096 0 l 742 0 l 388 500 l 364 492 z "},"ń":{"ha":1022,"x_min":-156,"x_max":975,"o":"m 622 768 l 399 768 l 614 979 l 975 979 l 622 768 m 272 231 l 228 0 l -156 0 l 31 694 l 421 694 l 333 444 l 351 444 q 502 642 407 568 q 706 715 597 715 q 883 667 825 715 q 940 531 940 618 q 924 418 940 483 l 811 0 l 428 0 l 522 239 q 540 308 540 282 q 516 363 540 343 q 447 383 492 383 q 337 342 388 383 q 272 231 286 300 z "},"Ņ":{"ha":1321,"x_min":-147,"x_max":1357,"o":"m 742 0 l 388 500 l 364 492 l 343 0 l -147 0 l 114 972 l 476 972 l 838 536 l 864 544 l 888 972 l 1357 972 l 1096 0 l 742 0 m 296 -597 l 232 -487 q 322 -439 275 -469 q 381 -386 368 -408 q 339 -393 357 -393 q 238 -349 272 -393 q 224 -231 203 -304 q 309 -110 244 -154 q 458 -65 374 -65 q 585 -117 546 -65 q 600 -260 625 -169 q 482 -466 569 -374 q 296 -597 394 -558 z "},"ņ":{"ha":1022,"x_min":-156,"x_max":940,"o":"m 272 231 l 228 0 l -156 0 l 31 694 l 421 694 l 333 444 l 351 444 q 502 642 407 568 q 706 715 597 715 q 883 667 825 715 q 940 531 940 618 q 924 418 940 483 l 811 0 l 428 0 l 522 239 q 540 308 540 282 q 516 363 540 343 q 447 383 492 383 q 337 342 388 383 q 272 231 286 300 m 139 -597 l 75 -487 q 165 -439 118 -469 q 224 -386 211 -408 q 182 -393 200 -393 q 81 -349 115 -393 q 67 -231 46 -304 q 152 -110 88 -154 q 301 -65 217 -65 q 428 -117 389 -65 q 443 -260 468 -169 q 325 -466 413 -374 q 139 -597 238 -558 z "},"Ň":{"ha":1321,"x_min":-147,"x_max":1357,"o":"m 924 1044 l 588 1044 l 442 1256 l 726 1256 l 790 1168 l 901 1256 l 1183 1256 l 924 1044 m 388 500 l 364 492 l 343 0 l -147 0 l 114 972 l 476 972 l 838 536 l 864 544 l 888 972 l 1357 972 l 1096 0 l 742 0 l 388 500 z "},"ň":{"ha":1022,"x_min":-156,"x_max":950,"o":"m 690 767 l 354 767 l 208 978 l 493 978 l 557 890 l 668 978 l 950 978 l 690 767 m 272 231 l 228 0 l -156 0 l 31 694 l 421 694 l 333 444 l 351 444 q 502 642 407 568 q 706 715 597 715 q 883 667 825 715 q 940 531 940 618 q 924 418 940 483 l 811 0 l 428 0 l 522 239 q 540 308 540 282 q 516 363 540 343 q 447 383 492 383 q 337 342 388 383 q 272 231 286 300 z "},"Ŋ":{"ha":1321,"x_min":-147,"x_max":1357,"o":"m 679 -296 q 454 -267 553 -296 l 554 13 q 647 -6 615 -6 q 710 10 688 -6 q 743 65 732 26 l 751 94 l 392 500 l 364 492 l 299 0 l -147 0 l 114 972 l 476 972 l 835 536 l 864 544 l 931 972 l 1357 972 l 1090 -19 q 951 -223 1056 -150 q 679 -296 846 -296 z "},"ŋ":{"ha":1072,"x_min":-125,"x_max":992,"o":"m 425 -296 q 199 -267 297 -296 l 299 8 q 390 -8 353 -8 q 497 79 475 -8 l 542 242 q 467 383 579 383 q 363 342 408 383 q 303 231 317 301 l 258 0 l -125 0 l 61 694 l 451 694 l 364 444 l 382 444 q 533 642 438 568 q 736 715 628 715 q 940 637 889 715 q 954 418 992 558 l 843 4 q 425 -296 761 -296 z "},"Ō":{"ha":1356,"x_min":-51,"x_max":1296,"o":"m 1094 1050 l 454 1050 l 504 1239 l 1144 1239 l 1094 1050 m 486 -21 q 92 74 235 -21 q -51 342 -51 168 q -23 514 -51 426 q 69 688 6 601 q 224 842 133 775 q 454 951 315 910 q 758 993 593 993 q 1153 899 1010 993 q 1296 632 1296 806 q 1275 490 1296 563 q 1214 343 1254 417 q 1106 204 1174 269 q 952 88 1039 139 q 745 8 865 38 q 486 -21 625 -21 m 765 343 q 840 363 813 343 q 868 414 868 383 q 794 513 868 461 q 628 597 719 565 q 481 629 538 629 q 403 609 433 629 q 374 558 374 589 q 449 460 374 513 q 616 376 524 408 q 765 343 708 343 z "},"ō":{"ha":1019,"x_min":-92,"x_max":925,"o":"m 851 772 l 211 772 l 261 961 l 901 961 l 851 772 m 317 -21 q 16 50 124 -21 q -92 246 -92 121 q -6 488 -92 379 q 217 656 79 597 q 514 715 356 715 q 817 644 708 715 q 925 446 925 574 q 840 204 925 313 q 616 38 754 96 q 317 -21 478 -21 m 519 263 q 574 296 574 263 q 476 385 574 336 q 314 433 378 433 q 260 400 260 433 q 360 313 260 363 q 519 263 460 263 z "},"Ő":{"ha":1356,"x_min":-51,"x_max":1322,"o":"m 740 1046 l 465 1046 l 686 1256 l 969 1256 l 740 1046 m 1083 1046 l 808 1046 l 1036 1256 l 1322 1256 l 1083 1046 m 486 -21 q 92 74 235 -21 q -51 342 -51 168 q -23 514 -51 426 q 69 688 6 601 q 224 842 133 775 q 454 951 315 910 q 758 993 593 993 q 1153 899 1010 993 q 1296 632 1296 806 q 1275 490 1296 563 q 1214 343 1254 417 q 1106 204 1174 269 q 952 88 1039 139 q 745 8 865 38 q 486 -21 625 -21 m 765 343 q 840 363 813 343 q 868 414 868 383 q 794 513 868 461 q 628 597 719 565 q 481 629 538 629 q 403 609 433 629 q 374 558 374 589 q 449 460 374 513 q 616 376 524 408 q 765 343 708 343 z "},"ő":{"ha":1019,"x_min":-92,"x_max":1081,"o":"m 499 768 l 224 768 l 444 978 l 728 978 l 499 768 m 842 768 l 567 768 l 794 978 l 1081 978 l 842 768 m 317 -21 q 16 50 124 -21 q -92 246 -92 121 q -6 488 -92 379 q 217 656 79 597 q 514 715 356 715 q 817 644 708 715 q 925 446 925 574 q 840 204 925 313 q 616 38 754 96 q 317 -21 478 -21 m 519 263 q 574 296 574 263 q 476 385 574 336 q 314 433 378 433 q 260 400 260 433 q 360 313 260 363 q 519 263 460 263 z "},"Œ":{"ha":2039,"x_min":-97,"x_max":2038,"o":"m 478 -21 q 43 110 183 -21 q -31 486 -97 240 q 246 862 36 731 q 750 993 456 993 q 960 972 853 993 l 2038 972 l 1935 586 l 1258 611 l 1240 540 l 1778 554 l 1740 411 l 1208 425 l 1189 350 l 1917 375 l 1817 0 l 699 0 q 478 -21 592 -21 m 618 383 q 807 407 736 383 l 850 564 q 672 588 789 588 q 456 560 539 588 q 358 486 372 533 q 415 410 346 438 q 618 383 483 383 z "},"œ":{"ha":1651,"x_min":-118,"x_max":1588,"o":"m 254 -21 q -30 77 58 -21 q -72 346 -118 175 q 115 617 -26 518 q 451 715 256 715 q 681 663 593 715 q 783 517 769 611 l 800 517 q 979 664 863 613 q 1233 715 1096 715 q 1506 621 1425 715 q 1546 371 1588 526 q 1524 317 1540 342 l 943 317 q 1016 276 938 293 q 1185 258 1094 258 q 1485 307 1364 258 l 1415 36 q 1068 -21 1265 -21 q 818 32 913 -21 q 710 179 724 85 l 693 179 q 513 31 629 83 q 254 -21 397 -21 m 949 369 l 1231 369 q 1201 428 1235 407 q 1111 450 1168 450 q 949 369 993 450 m 404 292 q 523 306 476 292 q 575 347 569 321 q 544 389 582 374 q 435 404 506 404 q 319 389 365 404 q 265 347 272 374 q 297 306 258 321 q 404 292 335 292 z "},"Ŕ":{"ha":1258,"x_min":-147,"x_max":1224,"o":"m 806 1046 l 582 1046 l 797 1257 l 1158 1257 l 806 1046 m 344 351 l 279 0 l -147 0 l 114 972 l 793 972 q 1113 922 1001 971 q 1224 758 1224 872 q 651 424 1224 424 l 644 400 l 765 400 q 1050 294 974 400 q 1050 0 1126 188 l 557 0 q 617 133 596 72 q 639 244 638 193 q 610 323 640 294 q 517 351 579 351 l 344 351 m 672 569 l 400 569 l 376 476 l 658 476 q 741 490 710 476 q 772 529 772 504 q 748 561 772 553 q 672 569 724 569 z "},"ŕ":{"ha":846,"x_min":-156,"x_max":826,"o":"m 379 768 l 156 768 l 371 979 l 732 979 l 379 768 m 240 186 l 207 0 l -156 0 l 31 694 l 401 694 l 314 444 l 331 444 q 483 641 385 567 q 689 715 581 715 q 826 679 779 715 l 697 285 q 633 354 681 325 q 528 383 585 383 q 331 325 407 383 q 240 186 254 267 z "},"Ŗ":{"ha":1258,"x_min":-147,"x_max":1224,"o":"m 517 351 l 344 351 l 279 0 l -147 0 l 114 972 l 793 972 q 1113 922 1001 971 q 1224 758 1224 872 q 651 424 1224 424 l 644 400 l 765 400 q 1050 294 974 400 q 1050 0 1126 188 l 557 0 q 617 133 596 72 q 639 244 638 193 q 610 323 640 294 q 517 351 579 351 m 672 569 l 400 569 l 376 476 l 658 476 q 741 490 710 476 q 772 529 772 504 q 748 561 772 553 q 672 569 724 569 m 247 -597 l 183 -487 q 273 -439 226 -469 q 332 -386 319 -408 q 290 -393 308 -393 q 189 -349 224 -393 q 175 -231 154 -304 q 260 -110 196 -154 q 410 -65 325 -65 q 537 -117 497 -65 q 551 -260 576 -169 q 433 -466 521 -374 q 247 -597 346 -558 z "},"ŗ":{"ha":846,"x_min":-214,"x_max":826,"o":"m 240 186 l 207 0 l -156 0 l 31 694 l 401 694 l 314 444 l 331 444 q 483 641 385 567 q 689 715 581 715 q 826 679 779 715 l 697 285 q 633 354 681 325 q 528 383 585 383 q 331 325 407 383 q 240 186 254 267 m -121 -597 l -185 -487 q -95 -439 -142 -469 q -36 -386 -49 -408 q -78 -393 -60 -393 q -179 -349 -144 -393 q -193 -231 -214 -304 q -108 -110 -172 -154 q 42 -65 -43 -65 q 169 -117 129 -65 q 183 -260 208 -169 q 65 -466 153 -374 q -121 -597 -22 -558 z "},"Ř":{"ha":1258,"x_min":-147,"x_max":1224,"o":"m 874 1044 l 538 1044 l 392 1256 l 676 1256 l 740 1168 l 851 1256 l 1133 1256 l 874 1044 m 517 351 l 344 351 l 279 0 l -147 0 l 114 972 l 793 972 q 1113 922 1001 971 q 1224 758 1224 872 q 651 424 1224 424 l 644 400 l 765 400 q 1050 294 974 400 q 1050 0 1126 188 l 557 0 q 617 133 596 72 q 639 244 638 193 q 610 323 640 294 q 517 351 579 351 m 672 569 l 400 569 l 376 476 l 658 476 q 741 490 710 476 q 772 529 772 504 q 748 561 772 553 q 672 569 724 569 z "},"ř":{"ha":846,"x_min":-156,"x_max":826,"o":"m 447 767 l 111 767 l -35 978 l 250 978 l 314 890 l 425 978 l 707 978 l 447 767 m 240 186 l 207 0 l -156 0 l 31 694 l 401 694 l 314 444 l 331 444 q 483 641 385 567 q 689 715 581 715 q 826 679 779 715 l 697 285 q 633 354 681 325 q 528 383 585 383 q 331 325 407 383 q 240 186 254 267 z "},"Ś":{"ha":1263,"x_min":-137,"x_max":1249,"o":"m 831 1046 l 607 1046 l 822 1257 l 1183 1257 l 831 1046 m 458 -21 q 140 7 328 -21 q -137 72 -47 35 l -19 519 q 202 394 54 439 q 546 350 350 350 q 683 363 633 350 q 733 397 733 376 q 660 429 733 421 q 484 442 588 438 q 276 460 381 447 q 99 520 172 474 q 26 644 26 567 q 86 810 26 739 q 247 919 146 881 q 461 975 347 957 q 701 993 575 993 q 996 967 831 993 q 1249 901 1161 942 l 1086 510 q 879 594 1004 563 q 619 625 754 625 q 418 583 418 625 q 471 551 418 561 q 603 539 524 540 q 776 530 683 538 q 949 507 869 522 q 1082 450 1029 492 q 1135 344 1135 408 q 1076 179 1135 251 q 919 65 1017 107 q 703 1 821 22 q 458 -21 586 -21 z "},"ś":{"ha":899,"x_min":-168,"x_max":921,"o":"m 568 768 l 344 768 l 560 979 l 921 979 l 568 768 m 232 -21 q 27 -7 150 -21 q -168 25 -96 7 l -83 343 q 95 290 -7 310 q 276 269 197 269 q 398 275 361 269 q 435 300 435 281 q 385 319 435 314 q 266 329 336 325 q 126 344 196 333 q 6 388 56 354 q -43 476 -43 421 q 35 614 -43 558 q 224 692 114 669 q 463 715 335 715 q 799 672 644 715 l 724 382 q 597 426 678 408 q 425 444 515 444 q 283 417 283 444 q 333 401 283 406 q 452 390 382 396 q 592 370 522 383 q 710 322 661 357 q 760 232 760 286 q 713 116 760 167 q 587 36 665 65 q 418 -7 508 7 q 232 -21 328 -21 z "},"Ş":{"ha":1263,"x_min":-137,"x_max":1249,"o":"m 418 583 q 471 551 418 561 q 603 539 524 540 q 776 530 683 538 q 949 507 869 522 q 1082 450 1029 492 q 1135 344 1135 408 q 1081 185 1135 256 q 935 72 1026 115 q 735 6 844 29 q 503 -21 625 -17 l 460 -72 q 571 -83 522 -54 q 601 -175 619 -111 q 515 -276 585 -240 q 354 -311 444 -311 q 171 -264 231 -311 l 228 -169 q 374 -210 289 -210 q 454 -172 446 -210 q 447 -149 458 -157 q 414 -142 435 -140 q 371 -154 393 -143 l 300 -103 l 363 -17 q 83 17 229 -8 q -137 72 -62 42 l -19 519 q 202 394 54 439 q 546 350 350 350 q 683 363 633 350 q 733 397 733 376 q 660 429 733 421 q 484 442 588 438 q 276 460 381 447 q 99 520 172 474 q 26 644 26 567 q 86 810 26 739 q 247 919 146 881 q 461 975 347 957 q 701 993 575 993 q 996 967 831 993 q 1249 901 1161 942 l 1086 510 q 879 594 1004 563 q 619 625 754 625 q 418 583 418 625 z "},"ş":{"ha":899,"x_min":-168,"x_max":799,"o":"m 283 417 q 333 401 283 406 q 452 390 382 396 q 592 370 522 383 q 710 322 661 357 q 760 232 760 286 q 693 99 760 154 q 531 16 626 43 q 317 -18 435 -11 l 272 -72 q 383 -83 335 -54 q 414 -175 432 -111 q 327 -276 397 -240 q 167 -311 257 -311 q -17 -264 43 -311 l 40 -169 q 186 -210 101 -210 q 267 -172 258 -210 q 259 -149 271 -157 q 226 -142 247 -140 q 183 -154 206 -143 l 113 -103 l 174 -19 q -168 25 -25 -10 l -83 343 q 95 290 -7 310 q 276 269 197 269 q 398 275 361 269 q 435 300 435 281 q 385 319 435 314 q 266 329 336 325 q 126 344 196 333 q 6 388 56 354 q -43 476 -43 421 q 35 614 -43 558 q 224 692 114 669 q 463 715 335 715 q 799 672 644 715 l 724 382 q 597 426 678 408 q 425 444 515 444 q 283 417 283 444 z "},"Š":{"ha":1263,"x_min":-137,"x_max":1249,"o":"m 900 1044 l 564 1044 l 418 1256 l 703 1256 l 767 1168 l 878 1256 l 1160 1256 l 900 1044 m 458 -21 q 140 7 328 -21 q -137 72 -47 35 l -19 519 q 202 394 54 439 q 546 350 350 350 q 683 363 633 350 q 733 397 733 376 q 660 429 733 421 q 484 442 588 438 q 276 460 381 447 q 99 520 172 474 q 26 644 26 567 q 86 810 26 739 q 247 919 146 881 q 461 975 347 957 q 701 993 575 993 q 996 967 831 993 q 1249 901 1161 942 l 1086 510 q 879 594 1004 563 q 619 625 754 625 q 418 583 418 625 q 471 551 418 561 q 603 539 524 540 q 776 530 683 538 q 949 507 869 522 q 1082 450 1029 492 q 1135 344 1135 408 q 1076 179 1135 251 q 919 65 1017 107 q 703 1 821 22 q 458 -21 586 -21 z "},"š":{"ha":899,"x_min":-168,"x_max":897,"o":"m 638 767 l 301 767 l 156 978 l 440 978 l 504 890 l 615 978 l 897 978 l 638 767 m 232 -21 q 27 -7 150 -21 q -168 25 -96 7 l -83 343 q 95 290 -7 310 q 276 269 197 269 q 398 275 361 269 q 435 300 435 281 q 385 319 435 314 q 266 329 336 325 q 126 344 196 333 q 6 388 56 354 q -43 476 -43 421 q 35 614 -43 558 q 224 692 114 669 q 463 715 335 715 q 799 672 644 715 l 724 382 q 597 426 678 408 q 425 444 515 444 q 283 417 283 444 q 333 401 283 406 q 452 390 382 396 q 592 370 522 383 q 710 322 661 357 q 760 232 760 286 q 713 116 760 167 q 587 36 665 65 q 418 -7 508 7 q 232 -21 328 -21 z "},"Ţ":{"ha":1128,"x_min":-14,"x_max":1176,"o":"m -14 550 l 101 972 l 1176 972 l 1064 550 l 703 564 l 578 0 l 453 0 l 393 -72 q 504 -83 456 -54 q 535 -175 553 -111 q 448 -276 518 -240 q 288 -311 378 -311 q 104 -264 164 -311 l 161 -169 q 307 -210 222 -210 q 388 -172 379 -210 q 380 -149 392 -157 q 347 -142 368 -140 q 304 -154 326 -143 l 233 -103 l 308 0 l 176 0 l 356 564 l -14 550 z "},"ţ":{"ha":757,"x_min":-78,"x_max":740,"o":"m 654 374 l 419 374 l 415 356 q 432 315 408 328 q 507 301 456 301 q 633 325 556 301 l 575 29 q 299 -21 438 -21 l 282 -21 l 240 -72 q 351 -83 303 -54 q 382 -175 400 -111 q 295 -276 365 -240 q 135 -311 225 -311 q -49 -264 11 -311 l 8 -169 q 154 -210 69 -210 q 235 -172 226 -210 q 227 -149 239 -157 q 194 -142 215 -140 q 151 -154 174 -143 l 81 -103 l 151 -7 q 6 147 6 29 q 17 222 6 172 l 58 374 l -78 374 l 7 694 q 358 950 288 694 l 574 950 l 506 694 l 740 694 l 654 374 z "},"Ť":{"ha":1128,"x_min":-14,"x_max":1176,"o":"m 826 1044 l 490 1044 l 344 1256 l 629 1256 l 693 1168 l 804 1256 l 1086 1256 l 826 1044 m 703 564 l 578 0 l 176 0 l 356 564 l -14 550 l 101 972 l 1176 972 l 1064 550 l 703 564 z "},"ť":{"ha":808,"x_min":-78,"x_max":1019,"o":"m 732 761 l 675 857 q 807 949 778 903 q 769 942 789 942 q 681 981 711 942 q 669 1083 651 1019 q 744 1190 686 1150 q 875 1229 801 1229 q 985 1183 950 1229 q 999 1058 1019 1138 q 896 878 972 958 q 732 761 819 797 m 299 -21 q 6 147 6 -21 q 17 222 6 172 l 58 374 l -78 374 l 7 694 q 358 950 288 694 l 574 950 l 506 694 l 740 694 l 654 374 l 419 374 l 415 356 q 432 315 408 328 q 507 301 456 301 q 633 325 556 301 l 575 29 q 299 -21 438 -21 z "},"Ŧ":{"ha":1128,"x_min":-14,"x_max":1176,"o":"m 578 0 l 176 0 l 279 325 l 92 325 l 124 442 l 318 442 l 356 564 l -14 550 l 101 972 l 1176 972 l 1064 550 l 703 564 l 675 442 l 869 442 l 839 325 l 649 325 l 578 0 z "},"ŧ":{"ha":783,"x_min":-76,"x_max":742,"o":"m 742 694 l 678 456 l 450 456 l 439 413 l 669 413 l 650 339 l 419 339 l 415 321 q 426 274 406 286 q 504 263 447 263 q 638 297 567 263 l 590 29 q 308 -21 456 -21 q 167 -7 226 -21 q 76 29 107 7 q 28 81 46 51 q 14 142 11 110 q 22 206 17 174 l 58 339 l -76 339 l -56 413 l 78 413 l 89 456 l -47 456 l 17 694 q 368 950 297 694 l 583 950 l 514 694 l 742 694 z "},"Ū":{"ha":1247,"x_min":-51,"x_max":1286,"o":"m 1040 1050 l 400 1050 l 450 1239 l 1090 1239 l 1040 1050 m 432 -21 q 73 64 197 -21 q -51 304 -51 149 q -33 433 -51 367 l 111 972 l 536 972 l 408 613 q 392 531 392 569 q 431 442 392 475 q 547 410 471 410 q 715 466 650 410 q 796 613 779 522 l 861 972 l 1286 972 l 1142 433 q 898 99 1085 219 q 432 -21 711 -21 z "},"ū":{"ha":1022,"x_min":-106,"x_max":992,"o":"m 854 772 l 214 772 l 264 961 l 904 961 l 854 772 m 131 -21 q -47 28 11 -21 q -106 164 -106 76 q -87 276 -106 208 l 25 694 l 410 694 l 314 456 q 294 382 294 407 q 389 311 294 311 q 501 353 450 311 q 565 464 553 394 l 608 694 l 992 694 l 806 0 l 415 0 l 503 250 l 485 250 q 334 53 429 126 q 131 -21 239 -21 z "},"Ů":{"ha":1247,"x_min":-51,"x_max":1286,"o":"m 717 1033 q 558 1081 608 1033 q 529 1208 507 1128 q 627 1338 551 1290 q 811 1386 703 1386 q 969 1338 918 1386 q 997 1208 1019 1290 q 899 1081 975 1128 q 717 1033 824 1033 m 746 1146 q 828 1208 810 1146 q 822 1253 835 1236 q 779 1269 808 1269 q 728 1253 750 1269 q 699 1208 706 1236 q 705 1163 692 1181 q 746 1146 718 1146 m 432 -21 q 73 64 197 -21 q -51 304 -51 149 q -33 433 -51 367 l 111 972 l 536 972 l 408 613 q 392 531 392 569 q 431 442 392 475 q 547 410 471 410 q 715 466 650 410 q 796 613 779 522 l 861 972 l 1286 972 l 1142 433 q 898 99 1085 219 q 432 -21 711 -21 z "},"ů":{"ha":1022,"x_min":-106,"x_max":992,"o":"m 531 756 q 372 803 422 756 q 343 931 321 850 q 441 1060 365 1013 q 625 1108 517 1108 q 783 1060 732 1108 q 811 931 833 1013 q 713 803 789 850 q 531 756 638 756 m 560 868 q 642 931 624 868 q 635 975 649 958 q 593 992 622 992 q 542 975 564 992 q 513 931 519 958 q 519 885 506 903 q 560 868 532 868 m 131 -21 q -47 28 11 -21 q -106 164 -106 76 q -87 276 -106 208 l 25 694 l 410 694 l 314 456 q 294 382 294 407 q 389 311 294 311 q 501 353 450 311 q 565 464 553 394 l 608 694 l 992 694 l 806 0 l 415 0 l 503 250 l 485 250 q 334 53 429 126 q 131 -21 239 -21 z "},"Ű":{"ha":1247,"x_min":-51,"x_max":1286,"o":"m 688 1046 l 413 1046 l 633 1256 l 917 1256 l 688 1046 m 1031 1046 l 756 1046 l 983 1256 l 1269 1256 l 1031 1046 m 432 -21 q 73 64 197 -21 q -51 304 -51 149 q -33 433 -51 367 l 111 972 l 536 972 l 408 613 q 392 531 392 569 q 431 442 392 475 q 547 410 471 410 q 715 466 650 410 q 796 613 779 522 l 861 972 l 1286 972 l 1142 433 q 898 99 1085 219 q 432 -21 711 -21 z "},"ű":{"ha":1022,"x_min":-106,"x_max":1083,"o":"m 501 768 l 226 768 l 447 978 l 731 978 l 501 768 m 844 768 l 569 768 l 797 978 l 1083 978 l 844 768 m 131 -21 q -47 28 11 -21 q -106 164 -106 76 q -87 276 -106 208 l 25 694 l 410 694 l 314 456 q 294 382 294 407 q 389 311 294 311 q 501 353 450 311 q 565 464 553 394 l 608 694 l 992 694 l 806 0 l 415 0 l 503 250 l 485 250 q 334 53 429 126 q 131 -21 239 -21 z "},"Ų":{"ha":1247,"x_min":-51,"x_max":1286,"o":"m 796 613 l 861 972 l 1286 972 l 1142 433 q 928 121 1089 239 q 525 -17 768 3 q 407 -142 424 -76 q 417 -195 399 -174 q 479 -217 436 -217 q 506 -214 492 -217 q 531 -208 519 -211 q 551 -201 542 -204 q 567 -194 560 -197 l 572 -190 l 569 -307 q 473 -338 538 -325 q 357 -351 408 -351 q 206 -308 258 -351 q 176 -175 153 -264 q 304 -14 199 -90 q 40 90 131 8 q -51 304 -51 171 q -33 433 -51 367 l 111 972 l 536 972 l 408 613 q 392 531 392 569 q 431 442 392 475 q 547 410 471 410 q 715 466 650 410 q 796 613 779 522 z "},"ų":{"ha":1022,"x_min":-106,"x_max":992,"o":"m 806 0 l 753 0 q 650 -64 699 -24 q 590 -146 601 -104 q 601 -201 583 -179 q 663 -222 619 -222 q 756 -196 703 -222 l 753 -312 q 656 -344 721 -331 q 540 -357 592 -357 q 389 -313 442 -357 q 360 -181 336 -269 q 413 -88 371 -137 q 514 0 454 -39 l 415 0 l 503 250 l 485 250 q 334 53 429 126 q 131 -21 239 -21 q -47 28 11 -21 q -106 164 -106 76 q -87 276 -106 208 l 25 694 l 410 694 l 314 456 q 294 382 294 407 q 389 311 294 311 q 501 353 450 311 q 565 464 553 394 l 608 694 l 992 694 l 806 0 z "},"Ŵ":{"ha":1621,"x_min":50,"x_max":1696,"o":"m 819 1044 l 535 1044 l 794 1256 l 1131 1256 l 1276 1044 l 994 1044 l 931 1133 l 819 1044 m 792 576 l 767 576 l 525 0 l 50 0 l 75 972 l 600 972 l 440 392 l 463 389 l 746 915 l 993 915 l 993 389 l 1018 392 l 1171 972 l 1696 972 l 1199 0 l 724 0 l 792 576 z "},"ŵ":{"ha":1482,"x_min":-36,"x_max":1474,"o":"m 675 767 l 390 767 l 650 978 l 986 978 l 1132 767 l 850 767 l 786 856 l 675 767 m 665 379 l 647 379 l 451 0 l -36 0 l 8 694 l 543 694 l 374 299 l 397 297 l 647 661 l 818 661 l 869 297 l 897 299 l 939 694 l 1474 694 l 1146 0 l 658 0 l 665 379 z "},"Ŷ":{"ha":1301,"x_min":78,"x_max":1374,"o":"m 658 1044 l 374 1044 l 633 1256 l 969 1256 l 1115 1044 l 833 1044 l 769 1133 l 658 1044 m 1374 972 l 761 369 l 690 0 l 240 0 l 368 369 l 78 972 l 622 972 l 611 594 l 638 594 l 828 972 l 1374 972 z "},"ŷ":{"ha":1022,"x_min":-129,"x_max":992,"o":"m 453 767 l 168 767 l 428 978 l 764 978 l 910 767 l 628 767 l 564 856 l 453 767 m 100 -299 q -129 -281 43 -299 l -69 11 q 168 -19 31 -19 q 356 31 269 -19 q 475 174 443 81 l 503 250 l 485 250 q 353 72 429 128 q 165 15 276 15 q -29 65 38 15 q -96 204 -96 115 q -81 301 -96 243 l 25 694 l 410 694 l 313 456 q 294 382 294 411 q 389 311 294 311 q 503 353 451 311 q 565 464 556 394 l 599 694 l 992 694 l 838 132 q 760 -41 811 33 q 624 -176 710 -115 q 407 -267 539 -236 q 100 -299 275 -299 z "},"Ÿ":{"ha":1301,"x_min":78,"x_max":1374,"o":"m 685 1076 q 659 1059 685 1076 q 564 1042 633 1042 q 460 1077 494 1042 q 442 1171 426 1113 q 511 1266 460 1232 q 633 1300 563 1300 q 736 1265 703 1300 q 753 1171 769 1231 q 685 1076 738 1111 m 1047 1076 q 1022 1059 1047 1076 q 926 1042 996 1042 q 823 1077 857 1042 q 806 1171 789 1113 q 874 1265 822 1231 q 994 1300 925 1300 q 1099 1265 1065 1300 q 1114 1171 1132 1231 q 1047 1076 1099 1111 m 828 972 l 1374 972 l 761 369 l 690 0 l 240 0 l 368 369 l 78 972 l 622 972 l 611 594 l 638 594 l 828 972 z "},"Ź":{"ha":1219,"x_min":-158,"x_max":1218,"o":"m 838 1046 l 615 1046 l 829 1257 l 1192 1257 l 838 1046 m 1122 436 l 1006 0 l -158 0 l -76 304 l 521 551 l 521 575 l 6 524 l 125 972 l 1218 972 l 1139 676 l 546 410 l 546 386 l 1122 436 z "},"ź":{"ha":940,"x_min":-165,"x_max":942,"o":"m 589 768 l 365 768 l 581 979 l 942 979 l 589 768 m 817 306 l 735 0 l -165 0 l -96 256 l 315 390 l -61 390 l 21 694 l 876 694 l 808 440 l 393 306 l 817 306 z "},"Ż":{"ha":1219,"x_min":-158,"x_max":1218,"o":"m 740 1043 q 636 1078 669 1043 q 619 1172 603 1114 q 687 1267 635 1232 q 808 1301 739 1301 q 911 1267 878 1301 q 929 1172 944 1232 q 860 1078 913 1113 q 740 1043 808 1043 m 546 410 l 546 386 l 1122 436 l 1006 0 l -158 0 l -76 304 l 521 551 l 521 575 l 6 524 l 125 972 l 1218 972 l 1139 676 l 546 410 z "},"ż":{"ha":940,"x_min":-165,"x_max":876,"o":"m 490 765 q 386 801 419 765 q 369 894 353 836 q 437 989 385 954 q 558 1024 489 1024 q 661 989 628 1024 q 679 894 694 954 q 610 800 663 835 q 490 765 558 765 m 808 440 l 393 306 l 817 306 l 735 0 l -165 0 l -96 256 l 315 390 l -61 390 l 21 694 l 876 694 l 808 440 z "},"Ž":{"ha":1219,"x_min":-158,"x_max":1218,"o":"m 908 1044 l 571 1044 l 425 1256 l 710 1256 l 774 1168 l 885 1256 l 1168 1256 l 908 1044 m 546 386 l 1122 436 l 1006 0 l -158 0 l -76 304 l 521 551 l 521 575 l 6 524 l 125 972 l 1218 972 l 1139 676 l 546 410 l 546 386 z "},"ž":{"ha":940,"x_min":-165,"x_max":918,"o":"m 658 767 l 322 767 l 176 978 l 461 978 l 525 890 l 636 978 l 918 978 l 658 767 m 393 306 l 817 306 l 735 0 l -165 0 l -96 256 l 315 390 l -61 390 l 21 694 l 876 694 l 808 440 l 393 306 z "},"ƒ":{"ha":613,"x_min":-225,"x_max":718,"o":"m 50 -206 l -225 -206 l 36 340 l -29 340 l 28 551 l 136 551 l 215 715 q 365 887 265 822 q 576 951 464 951 q 718 914 669 951 l 654 676 q 563 711 631 711 q 460 647 490 711 l 413 551 l 538 551 l 481 340 l 313 340 l 50 -206 z "},"Ș":{"ha":1263,"x_min":-137,"x_max":1249,"o":"m 458 -21 q 140 7 328 -21 q -137 72 -47 35 l -19 519 q 202 394 54 439 q 546 350 350 350 q 683 363 633 350 q 733 397 733 376 q 660 429 733 421 q 484 442 588 438 q 276 460 381 447 q 99 520 172 474 q 26 644 26 567 q 86 810 26 739 q 247 919 146 881 q 461 975 347 957 q 701 993 575 993 q 996 967 831 993 q 1249 901 1161 942 l 1086 510 q 879 594 1004 563 q 619 625 754 625 q 418 583 418 625 q 471 551 418 561 q 603 539 524 540 q 776 530 683 538 q 949 507 869 522 q 1082 450 1029 492 q 1135 344 1135 408 q 1076 179 1135 251 q 919 65 1017 107 q 703 1 821 22 q 458 -21 586 -21 m 267 -597 l 203 -487 q 292 -439 246 -469 q 351 -386 339 -408 q 310 -393 328 -393 q 208 -349 243 -393 q 194 -231 174 -304 q 280 -110 215 -154 q 429 -65 344 -65 q 556 -117 517 -65 q 571 -260 596 -169 q 453 -466 540 -374 q 267 -597 365 -558 z "},"ș":{"ha":899,"x_min":-168,"x_max":799,"o":"m 232 -21 q 27 -7 150 -21 q -168 25 -96 7 l -83 343 q 95 290 -7 310 q 276 269 197 269 q 398 275 361 269 q 435 300 435 281 q 385 319 435 314 q 266 329 336 325 q 126 344 196 333 q 6 388 56 354 q -43 476 -43 421 q 35 614 -43 558 q 224 692 114 669 q 463 715 335 715 q 799 672 644 715 l 724 382 q 597 426 678 408 q 425 444 515 444 q 283 417 283 444 q 333 401 283 406 q 452 390 382 396 q 592 370 522 383 q 710 322 661 357 q 760 232 760 286 q 713 116 760 167 q 587 36 665 65 q 418 -7 508 7 q 232 -21 328 -21 m 79 -597 l 15 -487 q 105 -439 58 -469 q 164 -386 151 -408 q 122 -393 140 -393 q 21 -349 56 -393 q 7 -231 -14 -304 q 92 -110 28 -154 q 242 -65 157 -65 q 369 -117 329 -65 q 383 -260 408 -169 q 265 -466 353 -374 q 79 -597 178 -558 z "},"Ț":{"ha":1128,"x_min":-14,"x_max":1176,"o":"m 1176 972 l 1064 550 l 703 564 l 578 0 l 176 0 l 356 564 l -14 550 l 101 972 l 1176 972 m 200 -597 l 136 -487 q 226 -439 179 -469 q 285 -386 272 -408 q 243 -393 261 -393 q 142 -349 176 -393 q 128 -231 107 -304 q 213 -110 149 -154 q 363 -65 278 -65 q 490 -117 450 -65 q 504 -260 529 -169 q 386 -466 474 -374 q 200 -597 299 -558 z "},"ț":{"ha":757,"x_min":-78,"x_max":740,"o":"m 299 -21 q 6 147 6 -21 q 17 222 6 172 l 58 374 l -78 374 l 7 694 q 358 950 288 694 l 574 950 l 506 694 l 740 694 l 654 374 l 419 374 l 415 356 q 432 315 408 328 q 507 301 456 301 q 633 325 556 301 l 575 29 q 299 -21 438 -21 m 47 -597 l -17 -487 q 73 -439 26 -469 q 132 -386 119 -408 q 90 -393 108 -393 q -11 -349 24 -393 q -25 -231 -46 -304 q 60 -110 -4 -154 q 210 -65 125 -65 q 337 -117 297 -65 q 351 -260 376 -169 q 233 -466 321 -374 q 47 -597 146 -558 z "},"ȷ":{"ha":631,"x_min":-242,"x_max":586,"o":"m -17 -296 q -242 -267 -143 -296 l -140 17 q -47 1 -82 1 q 23 25 -6 1 q 63 89 51 49 l 138 371 l -14 371 l 72 694 l 586 694 l 401 4 q 262 -215 364 -135 q -17 -296 160 -296 z "},"̀":{"ha":0,"x_min":-457,"x_max":6,"o":"m 6 768 l -218 768 l -457 979 l -96 979 l 6 768 z "},"́":{"ha":0,"x_min":-514,"x_max":63,"o":"m -290 768 l -514 768 l -299 979 l 63 979 l -290 768 z "},"̂":{"ha":0,"x_min":-736,"x_max":6,"o":"m -451 767 l -736 767 l -476 978 l -140 978 l 6 767 l -276 767 l -340 856 l -451 767 z "},"̃":{"ha":0,"x_min":-607,"x_max":67,"o":"m -462 788 l -607 817 q -513 964 -578 911 q -369 1017 -449 1017 q -242 979 -311 1017 q -157 950 -187 950 q -110 964 -128 950 q -78 1019 -92 978 l 67 994 q -169 793 4 793 q -307 833 -229 793 q -386 860 -358 860 q -462 788 -436 860 z "},"̄":{"ha":0,"x_min":-633,"x_max":57,"o":"m 7 772 l -633 772 l -583 961 l 57 961 l 7 772 z "},"̆":{"ha":0,"x_min":-524,"x_max":67,"o":"m -60 829 q -110 795 -60 829 q -279 761 -160 761 q -461 829 -399 761 q -497 994 -524 897 l -315 994 q -302 936 -325 960 q -237 913 -279 913 q -160 936 -194 913 q -114 994 -125 960 l 67 994 q -60 829 40 897 z "},"̇":{"ha":0,"x_min":-286,"x_max":56,"o":"m -149 765 q -253 801 -219 765 q -269 894 -286 836 q -202 989 -254 954 q -81 1024 -150 1024 q 22 989 -11 1024 q 40 894 56 954 q -28 800 24 835 q -149 765 -81 765 z "},"̈":{"ha":0,"x_min":-669,"x_max":36,"o":"m -410 799 q -436 781 -410 799 q -532 764 -462 764 q -635 799 -601 764 q -654 893 -669 835 q -585 988 -636 954 q -462 1022 -533 1022 q -360 988 -393 1022 q -343 893 -326 953 q -410 799 -358 833 m -49 799 q -74 781 -49 799 q -169 764 -100 764 q -273 799 -239 764 q -290 893 -307 835 q -222 988 -274 953 q -101 1022 -171 1022 q 3 988 -31 1022 q 18 893 36 953 q -49 799 3 833 z "},"̊":{"ha":0,"x_min":-440,"x_max":72,"o":"m -231 756 q -390 803 -339 756 q -418 931 -440 850 q -320 1060 -396 1013 q -136 1108 -244 1108 q 22 1060 -29 1108 q 50 931 72 1013 q -48 803 28 850 q -231 756 -124 756 m -201 868 q -119 931 -137 868 q -126 975 -112 958 q -168 992 -139 992 q -219 975 -197 992 q -249 931 -242 958 q -242 885 -256 903 q -201 868 -229 868 z "},"̋":{"ha":0,"x_min":-822,"x_max":35,"o":"m -547 768 l -822 768 l -601 978 l -318 978 l -547 768 m -204 768 l -479 768 l -251 978 l 35 978 l -204 768 z "},"̌":{"ha":0,"x_min":-679,"x_max":63,"o":"m -197 767 l -533 767 l -679 978 l -394 978 l -331 890 l -219 978 l 63 978 l -197 767 z "},"̒":{"ha":0,"x_min":-356,"x_max":67,"o":"m -189 758 q -316 810 -276 758 q -331 953 -356 863 q -212 1158 -300 1067 q -26 1289 -125 1250 l 38 1179 q -51 1131 -6 1161 q -111 1079 -97 1101 q -69 1085 -81 1085 q 32 1040 -3 1085 q 47 924 67 996 q -39 803 26 847 q -189 758 -104 758 z "},"̦":{"ha":0,"x_min":-668,"x_max":-246,"o":"m -575 -597 l -639 -487 q -549 -439 -596 -469 q -490 -386 -503 -408 q -532 -393 -514 -393 q -633 -349 -599 -393 q -647 -231 -668 -304 q -562 -110 -626 -154 q -412 -65 -497 -65 q -285 -117 -325 -65 q -271 -260 -246 -169 q -389 -466 -301 -374 q -575 -597 -476 -558 z "},"̧":{"ha":0,"x_min":-678,"x_max":-229,"o":"m -494 -311 q -678 -264 -618 -311 l -621 -169 q -475 -210 -560 -210 q -394 -172 -403 -210 q -402 -149 -390 -157 q -435 -142 -414 -140 q -478 -154 -456 -143 l -549 -103 l -464 13 l -319 13 l -389 -72 q -278 -83 -326 -54 q -247 -175 -229 -111 q -334 -276 -264 -240 q -494 -311 -404 -311 z "},"̨":{"ha":0,"x_min":-701,"x_max":-282,"o":"m -497 -357 q -649 -313 -596 -357 q -678 -181 -701 -269 q -579 -42 -660 -114 q -400 57 -499 29 l -285 0 q -387 -65 -339 -25 q -447 -147 -436 -104 q -437 -201 -456 -181 q -375 -222 -418 -222 q -282 -196 -335 -222 l -285 -312 q -381 -344 -317 -331 q -497 -357 -446 -357 z "},"ʹ":{"ha":499,"x_min":44,"x_max":486,"o":"m 239 769 l 44 769 l 172 1014 l 486 1014 l 239 769 z "},"͵":{"ha":499,"x_min":-231,"x_max":210,"o":"m -36 -262 l -231 -262 l -103 -17 l 210 -17 l -36 -262 z "},";":{"ha":501,"x_min":-104,"x_max":446,"o":"m 338 490 q 305 468 338 490 q 188 446 272 446 q 60 490 103 446 q 39 613 18 535 q 126 733 60 689 q 276 778 192 778 q 403 733 361 778 q 425 611 446 689 q 338 490 404 535 m -12 -219 l -75 -110 q 15 -60 -31 -90 q 72 -8 61 -29 q 32 -15 51 -15 q -69 29 -35 -15 q -85 147 -104 74 q 2 268 -62 224 q 151 313 67 313 q 278 260 238 313 q 293 118 318 207 q 174 -88 261 4 q -12 -219 86 -181 z "},"·":{"ha":474,"x_min":-32,"x_max":404,"o":"m 291 372 q 256 346 291 372 q 136 319 221 319 q 10 372 51 319 q -11 506 -32 425 q 81 637 11 585 q 236 689 151 689 q 363 637 321 689 q 382 504 404 585 q 291 372 361 425 z "},"Ẁ":{"ha":1621,"x_min":50,"x_max":1696,"o":"m 1038 1046 l 814 1046 l 575 1257 l 936 1257 l 1038 1046 m 1199 0 l 724 0 l 792 576 l 767 576 l 525 0 l 50 0 l 75 972 l 600 972 l 440 392 l 463 389 l 746 915 l 993 915 l 993 389 l 1018 392 l 1171 972 l 1696 972 l 1199 0 z "},"ẁ":{"ha":1482,"x_min":-36,"x_max":1474,"o":"m 893 768 l 669 768 l 431 979 l 792 979 l 893 768 m 1146 0 l 658 0 l 665 379 l 647 379 l 451 0 l -36 0 l 8 694 l 543 694 l 374 299 l 397 297 l 647 661 l 818 661 l 869 297 l 897 299 l 939 694 l 1474 694 l 1146 0 z "},"Ẃ":{"ha":1621,"x_min":50,"x_max":1696,"o":"m 1004 1046 l 781 1046 l 996 1257 l 1357 1257 l 1004 1046 m 767 576 l 525 0 l 50 0 l 75 972 l 600 972 l 440 392 l 463 389 l 746 915 l 993 915 l 993 389 l 1018 392 l 1171 972 l 1696 972 l 1199 0 l 724 0 l 792 576 l 767 576 z "},"ẃ":{"ha":1482,"x_min":-36,"x_max":1474,"o":"m 860 768 l 636 768 l 851 979 l 1213 979 l 860 768 m 647 379 l 451 0 l -36 0 l 8 694 l 543 694 l 374 299 l 397 297 l 647 661 l 818 661 l 869 297 l 897 299 l 939 694 l 1474 694 l 1146 0 l 658 0 l 665 379 l 647 379 z "},"Ẅ":{"ha":1621,"x_min":50,"x_max":1696,"o":"m 845 1076 q 819 1059 845 1076 q 724 1042 793 1042 q 620 1077 654 1042 q 601 1171 586 1113 q 671 1266 619 1232 q 793 1300 722 1300 q 896 1265 863 1300 q 913 1171 929 1231 q 845 1076 897 1111 m 1207 1076 q 1181 1059 1207 1076 q 1086 1042 1156 1042 q 983 1077 1017 1042 q 965 1171 949 1113 q 1033 1265 982 1231 q 1154 1300 1085 1300 q 1258 1265 1225 1300 q 1274 1171 1292 1231 q 1207 1076 1258 1111 m 724 0 l 792 576 l 767 576 l 525 0 l 50 0 l 75 972 l 600 972 l 440 392 l 463 389 l 746 915 l 993 915 l 993 389 l 1018 392 l 1171 972 l 1696 972 l 1199 0 l 724 0 z "},"ẅ":{"ha":1482,"x_min":-36,"x_max":1474,"o":"m 701 799 q 675 781 701 799 q 579 764 649 764 q 476 799 510 764 q 457 893 442 835 q 526 988 475 954 q 649 1022 578 1022 q 751 988 718 1022 q 768 893 785 953 q 701 799 753 833 m 1063 799 q 1037 781 1063 799 q 942 764 1011 764 q 838 799 872 764 q 821 893 804 835 q 889 988 838 953 q 1010 1022 940 1022 q 1114 988 1081 1022 q 1129 893 1147 953 q 1063 799 1114 833 m 658 0 l 665 379 l 647 379 l 451 0 l -36 0 l 8 694 l 543 694 l 374 299 l 397 297 l 647 661 l 818 661 l 869 297 l 897 299 l 939 694 l 1474 694 l 1146 0 l 658 0 z "},"ẞ":{"ha":1279,"x_min":-161,"x_max":1226,"o":"m 574 -21 q 329 6 449 -21 l 422 356 q 567 347 465 347 q 735 406 719 347 q 728 433 739 421 q 683 456 718 446 q 590 465 647 465 l 464 465 l 488 551 l 739 608 l 746 632 l 431 632 l 263 0 l -161 0 l 100 972 l 1226 972 l 1136 638 l 814 546 l 808 528 q 1084 458 999 528 q 1139 276 1169 389 q 953 58 1101 138 q 574 -21 804 -21 z "},"Ỳ":{"ha":1301,"x_min":78,"x_max":1374,"o":"m 876 1046 l 653 1046 l 414 1257 l 775 1257 l 876 1046 m 638 594 l 828 972 l 1374 972 l 761 369 l 690 0 l 240 0 l 368 369 l 78 972 l 622 972 l 611 594 l 638 594 z "},"ỳ":{"ha":1022,"x_min":-129,"x_max":992,"o":"m 671 768 l 447 768 l 208 979 l 569 979 l 671 768 m 100 -299 q -129 -281 43 -299 l -69 11 q 168 -19 31 -19 q 356 31 269 -19 q 475 174 443 81 l 503 250 l 485 250 q 353 72 429 128 q 165 15 276 15 q -29 65 38 15 q -96 204 -96 115 q -81 301 -96 243 l 25 694 l 410 694 l 313 456 q 294 382 294 411 q 389 311 294 311 q 503 353 451 311 q 565 464 556 394 l 599 694 l 992 694 l 838 132 q 760 -41 811 33 q 624 -176 710 -115 q 407 -267 539 -236 q 100 -299 275 -299 z "},"–":{"ha":797,"x_min":-83,"x_max":689,"o":"m 631 226 l -83 226 l -25 446 l 689 446 l 631 226 z "},"—":{"ha":1119,"x_min":-83,"x_max":1011,"o":"m 951 226 l -83 226 l -25 446 l 1011 446 l 951 226 z "},"―":{"ha":797,"x_min":-83,"x_max":689,"o":"m 631 226 l -83 226 l -25 446 l 689 446 l 631 226 z "},"‘":{"ha":504,"x_min":21,"x_max":443,"o":"m 188 461 q 61 513 101 461 q 44 654 21 565 q 164 861 76 769 q 350 992 251 953 l 414 882 q 324 833 369 863 q 265 782 278 803 q 307 788 293 788 q 408 743 374 788 q 424 626 443 699 q 338 506 403 550 q 188 461 272 461 z "},"’":{"ha":504,"x_min":69,"x_max":490,"o":"m 161 428 l 99 538 q 188 585 142 556 q 246 638 233 615 q 204 632 221 632 q 104 676 139 632 q 89 793 69 721 q 175 914 110 869 q 325 958 240 958 q 451 906 411 958 q 467 764 490 854 q 347 558 435 650 q 161 428 260 467 z "},"‚":{"ha":501,"x_min":-106,"x_max":317,"o":"m -14 -221 l -76 -111 q 14 -61 -32 -92 q 71 -10 60 -31 q 31 -17 50 -17 q -71 28 -36 -17 q -86 146 -106 74 q 0 267 -65 222 q 150 311 65 311 q 277 259 238 311 q 292 117 317 207 q 172 -89 260 3 q -14 -221 85 -181 z "},"“":{"ha":938,"x_min":21,"x_max":876,"o":"m 186 461 q 60 513 100 461 q 44 654 21 565 q 164 861 76 769 q 350 992 251 953 l 414 882 q 324 833 369 863 q 265 782 278 803 q 307 788 293 788 q 407 743 372 788 q 422 626 442 699 q 336 506 401 550 q 186 461 271 461 m 621 461 q 494 513 535 461 q 478 654 454 565 q 597 861 510 769 q 783 992 685 953 l 847 882 q 758 833 804 863 q 700 782 713 803 q 740 788 728 788 q 842 743 807 788 q 857 626 876 699 q 771 506 836 550 q 621 461 706 461 z "},"”":{"ha":938,"x_min":69,"x_max":925,"o":"m 161 428 l 99 538 q 188 585 142 556 q 246 638 233 615 q 204 632 221 632 q 104 676 139 632 q 89 793 69 721 q 175 914 110 869 q 325 958 240 958 q 451 906 411 958 q 467 764 490 854 q 347 558 435 650 q 161 428 260 467 m 596 428 l 532 538 q 622 586 575 556 q 679 638 668 617 q 639 632 654 632 q 538 676 572 632 q 522 793 503 721 q 608 914 543 869 q 758 958 674 958 q 885 906 846 958 q 900 764 925 854 q 781 558 868 650 q 596 428 694 467 z "},"„":{"ha":926,"x_min":-115,"x_max":751,"o":"m -22 -221 l -86 -111 q 4 -61 -42 -92 q 61 -10 50 -31 q 21 -17 40 -17 q -81 28 -46 -17 q -96 146 -115 74 q -10 267 -75 222 q 140 311 56 311 q 267 259 228 311 q 282 117 307 207 q 164 -89 251 3 q -22 -221 76 -181 m 422 -221 l 358 -111 q 449 -61 403 -92 q 507 -10 494 -31 q 465 -17 483 -17 q 364 28 399 -17 q 349 146 329 74 q 435 267 369 222 q 585 311 500 311 q 712 259 672 311 q 726 117 751 207 q 608 -89 696 3 q 422 -221 521 -181 z "},"†":{"ha":406,"x_min":33,"x_max":414,"o":"m 197 454 l 81 454 l 158 721 l 33 715 l 63 822 l 185 818 l 210 940 l 326 940 l 289 818 l 414 822 l 385 715 l 264 721 l 197 454 z "},"‡":{"ha":406,"x_min":-60,"x_max":414,"o":"m 142 250 l 25 250 l 64 375 l -60 371 l -31 478 l 90 472 l 157 721 l 33 715 l 63 822 l 183 818 l 210 940 l 326 940 l 289 818 l 414 822 l 385 715 l 264 721 l 197 472 l 322 478 l 293 371 l 171 375 l 142 250 z "},"•":{"ha":517,"x_min":-33,"x_max":361,"o":"m 256 211 q 223 185 256 211 q 117 160 190 160 q 5 211 43 160 q -14 336 -33 263 q 72 462 6 410 q 211 514 138 514 q 323 462 285 514 q 342 336 361 410 q 256 211 322 263 z "},"…":{"ha":1536,"x_min":-104,"x_max":1350,"o":"m 215 31 q 183 8 215 31 q 65 -14 150 -14 q -62 31 -19 -14 q -83 153 -104 75 q 3 274 -62 229 q 154 318 69 318 q 281 274 239 318 q 301 151 322 229 q 215 31 281 75 m 729 31 q 697 8 729 31 q 579 -14 664 -14 q 452 31 494 -14 q 431 153 410 75 q 517 274 451 229 q 668 318 583 318 q 794 274 753 318 q 815 151 836 229 q 729 31 794 75 m 1243 31 q 1210 8 1243 31 q 1093 -14 1178 -14 q 966 31 1008 -14 q 944 153 924 75 q 1031 274 965 229 q 1182 318 1097 318 q 1308 274 1267 318 q 1329 151 1350 229 q 1243 31 1308 75 z "},"‰":{"ha":1932,"x_min":-1,"x_max":1938,"o":"m 235 426 q 57 506 115 426 q 31 707 -1 585 q 165 909 64 831 q 386 988 265 988 q 565 909 507 988 q 590 707 624 831 q 457 506 558 585 q 235 426 356 426 m 381 0 l 122 0 l 931 972 l 1188 972 l 381 0 m 283 603 q 356 632 322 603 q 403 707 390 661 q 398 783 417 754 q 339 811 379 811 q 265 783 299 811 q 217 707 231 754 q 224 632 204 661 q 283 603 243 603 m 1147 63 q 1096 24 1147 63 q 925 -15 1046 -15 q 747 63 804 -15 q 721 265 689 142 q 854 467 753 388 q 1076 546 956 546 q 1254 467 1196 546 q 1281 265 1313 388 q 1147 63 1247 142 m 1772 63 q 1721 24 1772 63 q 1550 -15 1671 -15 q 1371 63 1429 -15 q 1346 265 1313 142 q 1478 467 1378 388 q 1700 546 1579 546 q 1879 467 1821 546 q 1904 265 1938 388 q 1772 63 1872 142 m 914 190 q 924 175 914 190 q 974 161 933 161 q 1047 190 1014 161 q 1094 265 1081 218 q 1088 340 1107 311 q 1029 369 1069 369 q 955 341 989 369 q 908 265 921 313 q 914 190 894 218 m 1597 161 q 1672 190 1638 161 q 1718 265 1706 218 q 1712 340 1731 311 q 1653 369 1693 369 q 1578 341 1613 369 q 1532 265 1544 313 q 1539 190 1519 218 q 1597 161 1558 161 z "},"′":{"ha":414,"x_min":31,"x_max":431,"o":"m 243 594 l 31 594 l 221 972 l 431 972 l 243 594 z "},"″":{"ha":732,"x_min":31,"x_max":749,"o":"m 243 594 l 31 594 l 221 972 l 431 972 l 243 594 m 560 594 l 349 594 l 538 972 l 749 972 l 560 594 z "},"‹":{"ha":599,"x_min":-22,"x_max":585,"o":"m 399 106 l 122 106 l -22 453 l 308 800 l 585 800 l 249 453 l 399 106 z "},"›":{"ha":599,"x_min":-117,"x_max":492,"o":"m 160 106 l -117 106 l 221 453 l 69 800 l 346 800 l 492 453 l 160 106 z "},"‽":{"ha":944,"x_min":51,"x_max":960,"o":"m 467 371 l 161 371 l 207 654 l 558 654 l 519 542 q 610 631 592 564 q 569 708 622 676 q 428 740 515 740 q 247 724 340 740 q 111 694 154 707 q 51 672 68 681 l 122 936 q 506 988 283 988 q 844 915 728 988 q 925 717 960 842 q 783 540 896 606 q 497 454 669 474 l 467 371 m 224 -15 q 101 28 140 -14 q 81 144 61 71 q 163 262 100 218 q 310 306 225 306 q 433 262 394 306 q 451 144 472 218 q 369 27 431 69 q 224 -15 307 -15 z "},"₨":{"ha":1004,"x_min":-133,"x_max":1058,"o":"m 753 0 l 404 0 l 228 226 l -133 226 l -69 468 l 364 468 q 515 536 474 468 l -50 536 l -19 653 l 543 653 q 410 719 533 719 l 1 719 l 69 972 l 1058 972 l 993 732 l 829 732 q 851 653 851 697 l 972 653 l 942 536 l 811 536 q 708 369 786 442 q 544 278 629 297 l 753 0 z "},"€":{"ha":1318,"x_min":-161,"x_max":1319,"o":"m 649 -10 q 188 83 340 -10 q 33 351 35 176 l -161 351 l -129 468 l 49 468 q 64 525 63 524 l -114 525 l -83 642 l 115 642 q 919 993 315 993 q 1319 947 1179 993 l 1240 657 q 1106 719 1211 693 q 897 746 1000 746 q 539 642 664 746 l 972 642 l 940 525 l 453 525 q 438 468 436 490 l 925 468 l 893 351 l 450 351 q 761 238 513 238 q 999 265 871 238 q 1181 332 1126 292 l 1104 39 q 649 -10 933 -10 z "},"ℓ":{"ha":649,"x_min":-50,"x_max":671,"o":"m 201 -21 q 8 199 -50 -21 l 14 218 q -49 203 -11 210 l -11 342 q 19 351 -1 344 q 51 360 40 357 l 156 746 q 479 993 231 993 q 632 926 593 993 q 640 746 671 860 q 511 482 596 583 q 285 311 432 382 l 275 275 q 275 201 261 219 q 342 182 289 182 q 407 186 381 182 l 356 -4 q 201 -21 292 -21 m 407 767 l 333 494 q 414 601 388 543 q 469 764 443 661 q 457 838 492 838 q 407 767 424 838 z "},"№":{"ha":1169,"x_min":-147,"x_max":1189,"o":"m 881 551 q 739 613 783 551 q 721 772 694 675 q 827 931 747 868 q 1003 993 907 993 q 1144 930 1099 993 q 1163 771 1189 867 q 1055 613 1135 675 q 881 551 975 551 m 174 0 l -147 0 l 122 972 l 358 972 l 339 549 l 354 551 l 426 972 l 732 972 l 461 0 l 235 0 l 293 597 l 278 594 l 174 0 m 917 682 q 979 708 950 682 q 1019 772 1008 733 q 1015 836 1031 811 q 965 861 1000 861 q 903 836 932 861 q 864 772 875 811 q 867 707 853 732 q 917 682 882 682 m 1022 368 l 636 368 l 671 494 l 1057 494 l 1022 368 z "},"℗":{"ha":1247,"x_min":-74,"x_max":1207,"o":"m 429 -24 q 44 119 161 -24 q -15 482 -74 261 q 240 847 43 703 q 704 990 436 990 q 1090 848 972 990 q 1149 485 1207 706 q 894 119 1090 263 q 429 -24 699 -24 m 458 82 q 831 197 678 82 q 1029 485 983 311 q 985 772 1076 658 q 676 885 894 885 q 305 770 457 885 q 106 482 153 656 q 149 195 58 308 q 458 82 240 82 m 422 233 l 235 233 l 378 769 l 708 769 q 882 724 819 769 q 918 581 944 679 q 817 436 896 497 q 611 375 739 375 l 461 375 l 422 233 m 529 628 l 497 513 l 636 513 q 729 571 713 513 q 719 614 736 600 q 668 628 703 628 l 529 628 z "},"™":{"ha":767,"x_min":47,"x_max":822,"o":"m 167 621 l 76 621 l 149 890 l 47 890 l 69 972 l 363 972 l 340 890 l 239 890 l 167 621 m 417 621 l 326 621 l 421 972 l 536 972 l 565 769 l 707 972 l 822 972 l 728 621 l 638 621 l 696 839 l 550 621 l 503 621 l 475 839 l 417 621 z "},"℮":{"ha":993,"x_min":-100,"x_max":982,"o":"m 306 -15 q -1 126 97 -15 q -42 486 -100 268 q 192 846 17 704 q 575 988 367 988 q 883 846 785 988 q 924 486 982 704 l 918 464 l 156 464 l 78 176 q 328 67 161 67 q 681 214 526 67 l 725 157 q 306 -15 542 -15 m 244 796 l 178 549 l 738 549 l 804 796 q 551 904 721 904 q 244 796 386 904 z "},"−":{"ha":833,"x_min":-76,"x_max":797,"o":"m 735 367 l -76 367 l -14 601 l 797 601 l 735 367 z "},"∕":{"ha":558,"x_min":-232,"x_max":693,"o":"m 33 0 l -232 0 l 431 972 l 693 972 l 33 0 z "},"∙":{"ha":463,"x_min":13,"x_max":382,"o":"m 160 431 q 52 472 92 431 q 28 569 13 514 q 103 665 42 625 q 233 706 165 706 q 342 665 303 706 q 368 569 382 625 q 291 472 353 513 q 160 431 229 431 z "},"∞":{"ha":1361,"x_min":-85,"x_max":1321,"o":"m 217 171 q -8 253 68 171 q -51 461 -85 335 q 108 674 -15 594 q 374 754 231 754 q 654 608 544 754 q 1022 754 851 754 q 1245 671 1169 754 q 1288 461 1321 588 q 1130 249 1251 328 q 865 171 1008 171 q 576 314 690 171 q 217 171 389 171 m 311 378 q 338 380 325 378 q 360 384 350 382 q 383 393 369 386 q 402 403 396 400 q 424 416 408 406 q 442 429 439 426 q 464 445 446 432 q 485 461 482 458 q 451 506 463 493 q 415 533 440 519 q 356 546 389 546 q 231 461 253 546 q 242 398 219 418 q 311 378 265 378 m 883 378 q 1004 461 982 378 q 928 546 1026 546 q 904 544 915 546 q 881 540 893 543 q 862 534 869 536 q 842 525 854 532 q 824 515 829 518 q 804 503 818 513 q 786 490 790 493 q 767 476 782 488 q 747 461 751 464 q 783 417 772 429 q 822 392 794 406 q 883 378 849 378 z "},"≈":{"ha":913,"x_min":-32,"x_max":836,"o":"m 136 515 l 71 738 q 319 840 176 840 q 476 813 386 840 q 611 786 565 786 q 771 842 704 786 l 836 621 q 589 517 729 517 q 431 544 524 517 q 296 571 339 571 q 136 515 219 571 m 32 129 l -32 351 q 215 454 74 454 q 372 427 282 454 q 507 400 461 400 q 667 456 601 400 l 732 235 q 486 131 625 131 q 328 158 421 131 q 194 186 236 186 q 32 129 119 186 z "},"≠":{"ha":965,"x_min":-93,"x_max":943,"o":"m 214 197 l 7 -12 l -68 56 l 71 197 l -93 197 l -32 425 l 300 425 l 413 540 l 0 540 l 60 765 l 638 765 l 840 971 l 917 903 l 781 765 l 943 765 l 883 540 l 554 540 l 443 425 l 853 425 l 792 197 l 214 197 z "},"≤":{"ha":772,"x_min":-165,"x_max":768,"o":"m 671 465 l 614 253 l -53 419 l 14 665 l 768 832 l 711 619 l 263 543 l 671 465 m 544 0 l -165 0 l -111 201 l 599 201 l 544 0 z "},"≥":{"ha":772,"x_min":-165,"x_max":724,"o":"m 657 419 l -97 253 l -40 465 l 408 542 l 0 619 l 57 832 l 724 665 l 657 419 m 546 0 l -165 0 l -111 201 l 599 201 l 546 0 z "},"◊":{"ha":963,"x_min":-58,"x_max":910,"o":"m 371 0 l 199 0 l -58 486 l 460 972 l 632 972 l 910 486 l 371 0 m 279 485 l 369 314 l 561 486 l 463 665 l 279 485 z "},"ﬁ":{"ha":1244,"x_min":-78,"x_max":1281,"o":"m 49 385 l -78 374 l 8 694 l 131 693 l 147 756 q 294 951 181 882 q 572 1019 408 1019 q 782 986 679 1019 l 694 747 q 604 765 653 765 q 492 731 501 765 l 481 693 l 1221 694 l 1035 0 l 675 0 l 776 378 l 407 378 l 322 0 l -56 0 l 49 385 m 853 875 q 935 978 869 939 q 1096 1017 1001 1017 q 1235 978 1189 1017 q 1263 875 1281 939 q 1179 772 1246 811 q 1019 733 1113 733 q 881 772 926 733 q 853 875 835 811 z "},"ﬂ":{"ha":1286,"x_min":-78,"x_max":1231,"o":"m 828 972 l 1231 972 l 1006 324 l 1179 324 l 1092 0 l 567 0 l 667 374 l 408 385 l 322 0 l -56 0 l 49 385 l -78 374 l 8 694 l 131 693 l 147 756 q 294 951 181 882 q 572 1019 408 1019 q 778 988 686 1019 l 694 747 q 604 765 653 765 q 492 731 501 765 l 481 693 l 753 694 l 828 972 z "}}}
